<?xml version="1.0" encoding="utf-8"?>
<!-- Generator: Adobe Illustrator 16.0.0, SVG Export Plug-In . SVG Version: 6.00 Build 0)  -->
<!DOCTYPE svg PUBLIC "-//W3C//DTD SVG 1.1//EN" "http://www.w3.org/Graphics/SVG/1.1/DTD/svg11.dtd">
<svg version="1.1" id="Livello_1" xmlns="http://www.w3.org/2000/svg" xmlns:xlink="http://www.w3.org/1999/xlink" x="0px" y="0px"
	 width="1759.091px" height="1852.273px" viewBox="0 0 1759.091 1852.273" enable-background="new 0 0 1759.091 1852.273"
	 xml:space="preserve">
<g>
	<path fill-rule="evenodd" clip-rule="evenodd" fill="#004B84" d="M671.653,52.429c0,10.158,10.158,20.315,10.158,25.397
		c-10.158-5.082-20.315-15.239-30.474-20.316C661.496,52.429,666.577,52.429,671.653,52.429L671.653,52.429z"/>
	<polygon fill-rule="evenodd" clip-rule="evenodd" fill="#004B84" points="1235.474,672.125 1235.474,672.125 1235.474,672.125 	"/>
	<path fill-rule="evenodd" clip-rule="evenodd" fill="#004B84" d="M1199.918,936.249c-10.163,15.239-25.392,35.565-40.632,45.718
		c0-20.306,0-40.632-15.239-50.784l35.556-35.561C1194.842,900.697,1199.918,921.018,1199.918,936.249L1199.918,936.249z"/>
	<path fill-rule="evenodd" clip-rule="evenodd" fill="#004B84" d="M1453.894,987.053c0,5.086,0,10.153-5.077,15.239
		c-5.087,5.087-10.163,5.087-15.239,0c-5.077,0-10.163-5.086-10.163-10.153c0-5.086,5.086-15.239,10.163-15.239
		C1438.653,976.9,1448.816,976.9,1453.894,987.053L1453.894,987.053z"/>
	<path fill-rule="evenodd" clip-rule="evenodd" fill="#004B84" d="M82.435,992.139c5.077,5.067,0,15.24,0,15.24
		c-5.081,10.153-10.157,10.153-15.239,10.153c-10.158,0-15.24-5.088-20.321-15.24c0-10.153,5.081-15.239,15.239-20.326
		C72.278,976.9,82.435,987.053,82.435,992.139L82.435,992.139z"/>
	<path fill-rule="evenodd" clip-rule="evenodd" fill="#004B84" d="M1707.867,1042.924c0,5.087,0,10.152-5.076,15.239
		c-5.087,5.087-10.163,10.153-15.24,10.153c-10.162-5.066-15.238-10.153-15.238-15.24c-5.087-5.065-5.087-15.239,0-20.306
		c5.076,0,5.076-5.086,15.238-5.086C1692.628,1027.685,1702.791,1032.771,1707.867,1042.924L1707.867,1042.924z"/>
	<path fill-rule="evenodd" clip-rule="evenodd" fill="#004B84" d="M244.978,951.488c5.077,5.087,5.077,15.239,0,20.326
		c0,5.086-10.158,5.086-15.239,10.152c-5.078-5.066-15.24-5.066-15.24-15.239c-5.076-10.152-5.076-15.239,0-20.307
		C224.662,936.249,244.978,941.334,244.978,951.488L244.978,951.488z M229.739,946.42c-10.158,5.067-10.158,10.154-10.158,15.24
		c0,5.066,10.158,10.153,15.239,10.153c5.077,0,5.077-10.153,5.077-15.239C239.896,951.488,234.82,946.42,229.739,946.42
		L229.739,946.42z"/>
	<path fill-rule="evenodd" clip-rule="evenodd" fill="#004B84" d="M646.255,1540.72c0,5.066,0,10.153-5.076,20.307
		c0,5.086-10.163,10.172-15.245,5.086c-10.158,0-15.239-5.086-15.239-10.152c-5.077-10.174,0-20.326,5.081-25.413
		C625.935,1525.481,641.179,1525.481,646.255,1540.72L646.255,1540.72z M620.858,1535.634c-5.082,5.086-5.082,10.152-5.082,15.239
		c5.082,5.087,10.158,10.153,15.24,5.087c5.082,0,10.163-5.087,10.163-10.174C636.098,1540.72,631.017,1535.634,620.858,1535.634
		L620.858,1535.634z"/>
	<path fill-rule="evenodd" clip-rule="evenodd" fill="#004B84" d="M438,1393.413c0,5.065,0,15.239,0,15.239
		c-5.082,10.152-10.158,15.239-20.321,15.239c-10.158,0-15.234-10.173-20.316-15.239c0-10.174,5.082-20.326,10.158-25.393
		C422.76,1378.172,432.918,1383.259,438,1393.413L438,1393.413z M412.602,1393.413c-5.081,0-5.081,5.065-5.081,10.153
		c5.081,5.086,10.158,10.152,15.239,10.152c5.082-5.066,10.158-10.152,5.082-15.24
		C427.842,1393.413,417.679,1388.326,412.602,1393.413L412.602,1393.413z"/>
	<path fill-rule="evenodd" clip-rule="evenodd" fill="#004B84" d="M295.773,1185.146c5.076,5.087,5.076,15.239,0,20.326
		c-5.082,5.086-10.158,10.153-15.24,10.153c-5.076,0-15.239-5.067-15.239-10.153c-5.077-10.152-5.077-15.239,0-20.326
		C270.375,1169.907,295.773,1169.907,295.773,1185.146L295.773,1185.146z M275.457,1185.146c-5.082,0-5.082,5.087-5.082,10.174
		c0,10.152,10.158,15.238,15.24,10.152c5.076-5.087,10.158-10.152,5.076-15.239C290.691,1185.146,285.615,1185.146,275.457,1185.146
		L275.457,1185.146z"/>
	<path fill-rule="evenodd" clip-rule="evenodd" fill="#004B84" d="M285.615,692.442c0,5.081,0,15.239-5.082,20.321
		c-5.076,10.158-15.239,10.158-20.315,5.076c-10.163-5.076-10.163-15.234-10.163-25.397c5.082-5.076,10.163-10.158,15.24-15.234
		C275.457,677.208,280.533,687.366,285.615,692.442L285.615,692.442z M260.218,692.442c0,0-5.082,5.081,0,10.163
		c0,5.077,5.077,10.158,10.157,5.077c10.158,0,10.158-10.158,10.158-15.239C275.457,687.366,265.294,687.366,260.218,692.442
		L260.218,692.442z"/>
	<path fill-rule="evenodd" clip-rule="evenodd" fill="#004B84" d="M412.602,474.027c0,5.076,0,10.158,0,15.234
		c-5.081,5.082-10.157,10.164-20.315,10.164c-5.082,0-15.245-5.082-15.245-10.164c-5.082-10.158,0-25.397,10.163-30.474
		C397.363,453.707,407.521,463.865,412.602,474.027L412.602,474.027z M392.287,468.946c-5.082,5.081-10.164,5.081-10.164,15.239
		c5.082,5.076,10.164,10.158,15.24,5.076c5.082,0,10.158-5.076,10.158-10.158C402.445,474.027,397.363,463.865,392.287,468.946
		L392.287,468.946z"/>
	<path fill-rule="evenodd" clip-rule="evenodd" fill="#004B84" d="M636.098,306.403c5.081,5.077,5.081,10.158,0,15.235
		c-5.082,5.081-10.164,10.163-20.322,10.163c-5.081,0-10.157-5.082-15.234-10.163c0-5.077,0-10.158,0-20.316
		c5.077-5.077,10.154-5.077,15.234-10.158C625.935,291.164,636.098,296.245,636.098,306.403L636.098,306.403z M615.776,301.322
		c-5.081,5.082-5.081,10.158-5.081,15.24c0,5.077,5.081,5.077,10.163,5.077c5.076,0,10.158-5.077,10.158-10.158
		C631.017,306.403,625.935,301.322,615.776,301.322L615.776,301.322z"/>
	<path fill-rule="evenodd" clip-rule="evenodd" fill="#004B84" d="M895.149,245.45c0,5.077,0,15.24-10.153,20.316
		c-5.087,0-10.163,0-20.326,0c-5.076-5.076-5.076-10.158-5.076-15.239c-5.082-10.158,0-15.234,10.157-20.316
		C879.909,230.211,890.072,230.211,895.149,245.45L895.149,245.45z M874.833,240.369c-10.163,0-10.163,5.081-10.163,15.239
		c5.081,5.082,10.163,5.082,15.239,5.082c5.087-5.082,10.163-10.163,5.087-15.24C884.996,240.369,879.909,240.369,874.833,240.369
		L874.833,240.369z"/>
	<path fill-rule="evenodd" clip-rule="evenodd" fill="#004B84" d="M1179.603,316.562c0,5.077,0,15.239,0,20.315
		c-5.076,5.082-10.164,5.082-20.316,5.082c-5.076,0-10.163,0-15.239-10.158c-5.076-5.082,0-15.239,5.076-20.321
		C1159.286,301.322,1174.526,306.403,1179.603,316.562L1179.603,316.562z M1159.286,311.48
		c-5.076,5.082-10.163,10.158-10.163,15.239c5.087,5.082,10.163,10.158,15.239,10.158c10.164-5.076,10.164-10.158,10.164-15.239
		C1169.438,316.562,1164.362,311.48,1159.286,311.48L1159.286,311.48z"/>
	<path fill-rule="evenodd" clip-rule="evenodd" fill="#004B84" d="M1377.695,468.946c0,5.081,0,10.157,0,20.315
		c-5.076,5.082-10.153,5.082-20.316,5.082c-5.076,0-10.152-5.082-15.239-10.158c0-5.082,0-15.239,5.087-20.321
		c0-5.077,5.076-5.077,10.152-5.077C1367.542,458.788,1372.619,458.788,1377.695,468.946L1377.695,468.946z M1352.303,468.946
		c-5.076,5.081-5.076,15.239,5.076,20.315c0,0,5.076,0,10.163-5.076c5.077-5.082,5.077-5.082,5.077-10.158
		C1372.619,463.865,1357.379,463.865,1352.303,468.946L1352.303,468.946z"/>
	<path fill-rule="evenodd" clip-rule="evenodd" fill="#004B84" d="M1514.851,707.681c0,10.158,0,15.24-5.087,20.316
		c-5.076,10.163-15.239,10.163-20.315,5.081c-10.163,0-10.163-10.157-15.24-15.239c0-10.158,5.077-15.234,15.24-20.316
		C1499.611,692.442,1509.764,697.523,1514.851,707.681L1514.851,707.681z M1494.524,707.681c-10.152,0-10.152,5.082-10.152,15.24
		c5.076,5.076,10.152,5.076,15.239,5.076c5.076-5.076,10.152-10.158,10.152-15.234
		C1504.688,707.681,1499.611,702.604,1494.524,707.681L1494.524,707.681z"/>
	<path fill-rule="evenodd" clip-rule="evenodd" fill="#004B84" d="M1540.243,971.814c5.076,5.086,5.076,15.239,0,20.325
		c-5.077,5.067-10.163,10.153-15.239,10.153c-10.153,0-15.24-5.086-20.316-10.153c0-10.173,0-15.239,5.076-20.325
		c5.087-5.087,5.087-10.153,10.164-10.153C1530.08,961.661,1535.166,966.727,1540.243,971.814L1540.243,971.814z M1519.928,971.814
		c-5.077,5.086-10.164,10.152-5.077,15.239c0,5.086,5.077,5.086,15.229,5.086c0,0,5.086-5.086,5.086-10.173
		C1535.166,971.814,1525.004,971.814,1519.928,971.814L1519.928,971.814z"/>
	<path fill-rule="evenodd" clip-rule="evenodd" fill="#004B84" d="M1479.285,1210.558c5.087,5.067,0,10.153,0,15.22
		c-5.077,10.174-15.239,15.239-25.392,10.174c-5.077-5.087-10.164-10.174-10.164-15.24c0-10.153,0-15.239,10.164-20.326
		C1464.046,1195.32,1474.208,1200.385,1479.285,1210.558L1479.285,1210.558z M1458.97,1205.472
		c-5.076,5.086-5.076,10.153-10.153,15.239c5.077,5.066,10.153,5.066,15.229,10.153c10.162,0,10.162-10.153,10.162-15.239
		C1474.208,1210.558,1464.046,1205.472,1458.97,1205.472L1458.97,1205.472z"/>
	<path fill-rule="evenodd" clip-rule="evenodd" fill="#004B84" d="M1342.14,1408.652c5.087,0,5.087,10.152,0,15.239
		c0,5.066-10.152,5.066-10.152,10.153c-10.164,0-20.316-5.087-20.316-10.153c-5.086-5.087-5.086-10.173,0-15.239
		c0-5.086,5.076-15.239,10.152-15.239C1331.987,1393.413,1342.14,1398.478,1342.14,1408.652L1342.14,1408.652z M1316.747,1408.652
		c-5.076,5.066,0,10.152,5.076,15.239c5.077,5.066,10.164,0,15.24,0c0-5.087,0-10.173,0-15.239
		C1331.987,1403.566,1321.823,1403.566,1316.747,1408.652L1316.747,1408.652z"/>
	<path fill-rule="evenodd" clip-rule="evenodd" fill="#004B84" d="M1149.123,1540.72c0,10.153,0,20.307-5.076,25.393
		s-15.239,5.086-20.326,5.086c-10.152-10.172-15.229-20.325-10.152-30.479c0-5.086,5.076-5.086,10.152-10.173
		C1133.884,1530.547,1144.047,1535.634,1149.123,1540.72L1149.123,1540.72z M1123.721,1540.72c-5.076,5.066-5.076,5.066-5.076,15.24
		c0,5.066,5.076,5.066,10.163,5.066c5.076,0,10.163-5.066,10.163-10.153C1138.971,1540.72,1128.808,1540.72,1123.721,1540.72
		L1123.721,1540.72z"/>
	<path fill-rule="evenodd" clip-rule="evenodd" fill="#004B84" d="M21.482,839.745c0,10.158,5.077,15.239,15.235,15.239h66.034
		c10.158,0,30.474,5.082,40.637,10.158c10.158,10.158,10.158,25.397,10.158,40.637c0,5.082,0,25.403-10.158,35.555
		c-10.164,10.153-15.24,15.24-40.637,10.153H36.717c-15.235,0-15.235,5.087-20.316,15.239H11.32l5.081-66.03h5.082
		c0,15.24,0,20.321,15.235,20.321l66.034,5.077c15.24,0,40.637,0,40.637-30.474c0-30.479-30.479-30.479-40.637-30.479l-60.953-5.076
		c-15.24,0-20.316,5.076-20.316,20.316h-5.082v-40.637H21.482L21.482,839.745z"/>
	<path fill-rule="evenodd" clip-rule="evenodd" fill="#004B84" d="M148.47,844.827c0-10.158,0-15.24-15.245-20.316l-91.426-15.24
		c-15.24,5.076-20.316,10.158-20.316,10.158h-5.082l10.158-40.637l96.509-45.713l0,0l-60.954-10.157
		c-15.239-5.082-20.315-5.082-25.397,10.157h-5.077l10.158-40.636h5.077c0,15.239,0,20.321,10.163,20.321l116.829,20.315v5.082
		L51.956,799.113l0,0l81.269,15.233c15.245,5.082,15.245,0,20.322-10.157h5.081l-5.081,40.637H148.47L148.47,844.827z"/>
	<path fill-rule="evenodd" clip-rule="evenodd" fill="#004B84" d="M194.183,656.887l-15.239,66.034l-5.077-5.082
		c0-10.158,0-15.234-10.163-20.316l-96.508-30.479c-10.158,0-15.24,5.082-15.24,15.24h-5.081l20.321-66.034h5.082
		c-5.082,10.157-5.082,20.315,5.076,25.397l96.513,25.397c10.158,5.082,15.239,0,15.239-10.157H194.183L194.183,656.887z"/>
	<path fill-rule="evenodd" clip-rule="evenodd" fill="#004B84" d="M128.148,489.262c-5.081,10.164-5.081,15.24,5.077,20.321
		l91.437,91.427l0,0l-132.068-5.076c-15.239,0-15.239,5.076-20.315,10.158h-5.082l25.397-60.954l5.076,5.078
		c-5.076,10.163-5.076,15.239,0,15.239c5.082,5.082,15.24,5.082,20.322,5.082h71.115l-55.881-45.719
		c0-5.076-5.077-10.158-10.157-10.158c-5.077-5.077-10.158,0-15.235,10.158h-5.082l20.316-40.631L128.148,489.262L128.148,489.262z"
		/>
	<path fill-rule="evenodd" clip-rule="evenodd" fill="#004B84" d="M128.148,468.946l60.958-86.351l35.555,20.315l-5.081,5.077
		c-25.398-15.234-35.556-5.077-50.795,15.245c-5.082,10.157-5.082,15.234,0,15.234l40.637,30.479
		c10.158-15.24,10.158-30.479-10.158-45.713l5.076-5.082l55.877,40.637l-5.082,5.077c-20.316-15.235-30.475-10.158-40.637,5.082
		l40.637,30.479c5.082,0,10.158,0,20.321-10.164c10.158-15.234,15.234-35.555-5.082-60.953l5.082-5.076l30.474,30.474
		l-60.953,91.431h-5.082c5.082-10.157,10.158-15.239-5.077-25.397l-81.273-50.794c-10.158-10.158-15.235,0-20.322,5.081
		L128.148,468.946L128.148,468.946z"/>
	<path fill-rule="evenodd" clip-rule="evenodd" fill="#004B84" d="M392.287,352.117l-25.403,30.479l-71.11-15.24l-5.082,5.076
		l30.479,25.398c10.158,10.157,15.235,5.081,25.397,0l5.077,5.081l-45.713,45.719v-5.082c5.082-10.158,5.082-10.158-5.081-25.397
		l-66.03-55.876c-15.239-15.234-15.239-10.158-25.397,0l-5.082-5.076l40.637-45.719c10.158-10.158,35.555-40.632,60.953-15.235
		c20.316,15.235,10.158,35.556,10.158,45.713l66.034,10.158c5.082,0,5.082,0,10.164-5.076V352.117L392.287,352.117z
		 M285.615,367.356c15.234-20.315,20.315-30.479,0-45.718c-15.24-15.235-25.397-15.235-35.561-5.077
		c-5.077,10.157-5.077,10.157,0,15.239L285.615,367.356L285.615,367.356z"/>
	<path fill-rule="evenodd" clip-rule="evenodd" fill="#004B84" d="M392.287,230.211c-10.164-10.158-35.561-20.316-50.8-5.082
		c-10.158,5.082-15.24,15.24-5.082,25.398c10.162,10.163,15.239,10.163,30.479,10.163l30.479-10.163
		c10.158,0,25.397,0,40.637,15.239c10.158,15.24,15.234,40.637-10.158,66.035c-15.24,10.158-25.397,10.158-30.479,15.24v5.076v5.082
		l-35.561-40.637h5.082c15.239,10.157,40.637,25.397,55.876,10.157c20.316-15.239,10.158-30.474,5.082-35.555
		c-10.163-10.157-15.24-10.157-30.479-5.081l-15.24,5.081c-35.556,5.082-45.718-5.081-50.794-15.239
		c-10.158-10.158-20.316-35.555,5.077-55.872c10.162-10.158,25.397-10.158,25.397-15.239c5.082,0,5.082-5.082,0-10.158h5.082
		l30.479,30.474L392.287,230.211L392.287,230.211z"/>
	<path fill-rule="evenodd" clip-rule="evenodd" fill="#004B84" d="M519.269,260.69l-55.872,35.555v-5.082
		c5.077-5.081,10.158-10.157,5.077-20.315l-55.872-81.274c-5.081-10.158-15.239-5.076-20.315-5.076h-5.082l55.872-40.642
		l5.082,5.086C438,154.019,432.918,159.1,438,169.258l55.871,86.35c5.082,10.158,15.24,5.082,25.398,0V260.69L519.269,260.69z"/>
	<path fill-rule="evenodd" clip-rule="evenodd" fill="#004B84" d="M600.542,220.053l-60.958,30.475v-5.077
		c10.164-10.157,15.24-10.157,5.082-25.397l-45.713-96.513c-10.158,5.082-30.479,15.239-20.321,45.719l-5.077,5.081l-15.24-40.642
		l101.59-45.713l20.315,35.555h-5.082c-20.315-25.397-35.556-20.316-50.789-15.24l50.789,96.514
		c5.082,15.239,10.164,15.239,20.321,10.157L600.542,220.053L600.542,220.053z"/>
	<path fill-rule="evenodd" clip-rule="evenodd" fill="#004B84" d="M737.688,174.339l-55.877,15.234v-5.076
		c10.158-5.082,10.158-5.082,10.158-10.158c0-5.081-10.158-20.321-15.234-25.397l-40.636,15.234c0,15.239-5.082,20.321,0,25.397
		c0,5.082,10.157,5.082,15.239,5.082v5.076l-35.561,10.163v-5.081c10.158-5.082,10.158-10.158,10.158-30.475l10.164-116.83h5.081
		l71.111,86.346c10.158,20.321,15.24,25.402,25.398,25.402V174.339L737.688,174.339z M671.653,143.856l-35.555-40.633v50.795
		L671.653,143.856L671.653,143.856z"/>
	<path fill-rule="evenodd" clip-rule="evenodd" fill="#004B84" d="M879.909,133.698c-15.239,15.245-25.397,30.479-50.794,30.479
		c-45.713,5.082-71.111-25.398-76.188-60.954c0-40.636,20.316-76.192,60.948-81.269c20.321,0,35.561,10.158,40.637,10.158
		c5.082-5.082,5.082-5.082,5.082-10.158l5.076-5.081l5.081,50.794h-5.081c-10.158-15.239-25.393-40.637-45.713-35.555
		c-30.474,0-35.555,30.475-30.474,66.03c0,10.157,5.076,30.479,10.158,45.713c10.158,10.163,25.398,15.244,30.475,10.163
		c15.239,0,30.479-5.076,40.636-25.397L879.909,133.698L879.909,133.698z"/>
	<path fill-rule="evenodd" clip-rule="evenodd" fill="#004B84" d="M1022.142,103.223c-5.087,40.633-35.565,66.035-76.198,66.035
		c-35.556-5.082-60.947-35.561-55.871-81.274c0-40.637,35.556-66.03,71.111-66.03C996.738,27.031,1027.218,57.51,1022.142,103.223
		L1022.142,103.223z M920.552,93.066c0,15.234-5.087,66.034,25.392,66.034c35.556,5.077,40.633-40.637,40.633-60.958
		c5.086-30.475,0-66.03-25.393-66.03C935.791,27.031,925.628,62.587,920.552,93.066L920.552,93.066z"/>
	<path fill-rule="evenodd" clip-rule="evenodd" fill="#004B84" d="M1174.526,220.053l-60.958-20.321l5.076-5.076
		c10.163,5.076,15.239,5.076,20.326-10.158l30.468-96.513l0,0l-86.35,101.589h-5.076l-5.087-126.986l0,0l-30.468,86.355
		c-5.077,15.234,0,20.316,10.152,25.397v5.076l-40.632-10.157v-5.082c15.239,0,20.315,0,20.315-10.158l30.479-91.431
		c5.077-10.158,0-15.24-10.162-20.316v-5.082l45.718,15.24l5.076,101.589l66.034-81.274l45.719,15.24v5.082
		c-10.162,0-15.239-5.082-20.315,15.234l-30.479,81.274c-5.076,15.24,0,20.321,10.164,25.397V220.053L1174.526,220.053z"/>
	<path fill-rule="evenodd" clip-rule="evenodd" fill="#004B84" d="M1316.747,306.403l-55.881-35.555l5.087-5.082
		c10.152,5.082,15.239,10.158,20.315,0l50.795-91.427l0,0l-101.59,81.269h-5.076l20.315-126.987l0,0l-50.795,81.273
		c-5.076,10.158-5.076,15.235,10.163,25.398l-5.086,5.076l-35.557-25.398v-5.077c15.24,10.158,20.316,5.077,25.403-5.081
		l45.719-81.274c10.152-10.158,5.076-10.158-5.087-20.316l5.087-5.081l40.632,25.397l-20.326,101.59l81.273-60.953l40.642,20.321
		v5.076c-10.162-5.076-15.239-5.076-25.402,10.158l-45.708,76.192c-5.086,15.239-5.086,15.239,5.076,25.397V306.403
		L1316.747,306.403z"/>
	<path fill-rule="evenodd" clip-rule="evenodd" fill="#004B84" d="M1398.021,199.732l81.264,71.116l-25.392,30.474h-5.077
		c15.229-25.397,10.153-35.556-10.163-55.872c-5.076-5.081-10.153-5.081-15.239,0l-30.479,35.556
		c15.239,10.157,25.402,15.239,40.642-5.082l5.076,5.082l-45.718,50.794l-5.077-5.082c15.239-20.315,15.239-30.474,0-40.636
		l-30.479,35.556c-5.076,5.081-5.076,10.163,5.076,20.32c10.164,10.158,30.48,20.316,60.959,5.082v5.076l-30.479,25.397
		l-86.351-76.192h5.086c10.152,5.082,15.229,10.158,20.316,0l66.034-76.192c10.153-10.158,5.076-15.235,0-20.315V199.732
		L1398.021,199.732z"/>
	<path fill-rule="evenodd" clip-rule="evenodd" fill="#004B84" d="M1479.285,479.104l-25.392-30.474l25.392-66.034l-5.077-5.082
		l-30.479,25.397c-10.152,10.164-10.152,15.24-5.076,25.398l0,0l-40.632-45.713v-5.082c10.153,10.158,15.239,10.158,25.393,0
		l71.11-55.876c15.239-10.158,10.163-15.235,5.087-25.393h5.076l35.556,45.713c10.152,10.158,30.479,40.637,5.076,60.953
		c-20.315,15.24-35.556,5.077-45.708,0l-20.326,66.035c0,5.081,0,5.081,5.087,10.157H1479.285L1479.285,479.104z M1479.285,372.432
		c15.239,20.322,25.402,25.398,45.719,5.082c15.239-10.158,20.315-20.315,10.162-35.556c-5.086-5.082-10.162-5.082-15.238,0
		L1479.285,372.432L1479.285,372.432z"/>
	<path fill-rule="evenodd" clip-rule="evenodd" fill="#004B84" d="M1560.56,570.536c-20.316,0-40.632-10.158-50.796-30.479
		c-25.392-35.556-5.076-76.192,25.402-91.427c35.556-20.321,76.188-15.24,96.514,20.316c10.153,15.239,5.077,30.479,10.153,35.555
		c0,5.081,5.076,5.081,10.163,5.081l5.076,5.077l-40.642,20.321l-5.076-5.082c15.239-10.158,25.402-35.555,15.239-55.872
		c-15.239-25.397-45.72-15.239-76.198,0c-10.152,10.158-25.392,20.316-30.468,30.474c-10.164,15.239-5.077,30.479-5.077,35.556
		c10.153,10.158,20.315,20.321,45.709,25.397V570.536L1560.56,570.536z"/>
	<path fill-rule="evenodd" clip-rule="evenodd" fill="#004B84" d="M1560.56,646.723l-25.394-60.948h5.077
		c5.076,5.077,10.152,15.234,20.316,10.158l91.437-40.637c10.152-5.081,10.152-10.158,5.076-20.315h5.076l25.402,55.871
		l-5.086,5.082c-5.076-10.158-5.076-15.239-20.316-10.158l-91.427,35.556c-10.162,5.076-10.162,15.234-5.086,25.393H1560.56
		L1560.56,646.723z"/>
	<path fill-rule="evenodd" clip-rule="evenodd" fill="#004B84" d="M1596.114,763.558l-15.24-55.877l5.088-5.077
		c5.076,15.234,5.076,15.234,10.152,15.234c5.086,0,20.316-10.158,25.402-15.234l-15.239-40.642c-15.239,0-20.315-5.076-25.403,0
		c-5.076,0-5.076,10.163-5.076,15.245h-5.076l-10.162-35.561h5.076c5.086,10.158,10.162,10.158,30.479,10.158l116.83,10.158v5.081
		l-91.428,71.116c-15.239,10.158-20.316,15.235-20.316,25.398H1596.114L1596.114,763.558z M1626.594,697.523l40.632-30.479
		l-50.795-5.081L1626.594,697.523L1626.594,697.523z"/>
	<path fill-rule="evenodd" clip-rule="evenodd" fill="#004B84" d="M1611.354,870.224l-15.24-106.666h5.086
		c5.077,10.157,5.077,15.233,15.23,15.233l96.514-15.233c15.239,0,15.239-10.164,15.239-15.24h5.077l5.087,60.953l-5.087,5.076
		c0-15.233,0-20.315-20.316-20.315l-91.428,15.239c-10.162,0-10.162,5.076-10.162,15.24c5.076,30.474,20.325,35.556,45.718,45.714
		v5.076L1611.354,870.224L1611.354,870.224z"/>
	<path fill-rule="evenodd" clip-rule="evenodd" fill="#004B84" d="M1748.5,880.382v106.671h-40.633v-5.087
		c25.394-5.066,30.48-15.239,30.48-40.632c5.076-10.152,0-15.24-5.087-15.24h-50.796c0,20.326,5.086,25.393,30.479,30.48v5.086
		h-66.035v-5.086c25.403,0,30.479-10.154,30.479-30.48h-50.795c-5.077,0-10.163,5.087-10.163,15.24
		c0,20.326,5.086,35.565,35.565,50.805v5.067l-40.642-10.153V880.382h5.076c0,10.157,0,15.239,15.249,15.239h96.504
		c15.24,0,15.24-5.082,15.24-15.239H1748.5L1748.5,880.382z"/>
	<path fill-rule="evenodd" clip-rule="evenodd" fill="#004B84" d="M31.641,1144.514L11.32,1037.837h5.081
		c5.082,10.174,5.082,15.239,15.24,10.174l96.508-15.24c15.24-5.086,15.24-10.173,10.164-20.326h5.077l15.239,66.045h-5.081
		c-5.077-15.239-5.077-20.326-25.398-15.239l-91.431,15.239c-10.158,5.066-10.158,5.066-10.158,20.306
		c5.082,25.394,25.397,35.565,50.795,40.632v5.087H31.641L31.641,1144.514z"/>
	<path fill-rule="evenodd" clip-rule="evenodd" fill="#004B84" d="M204.341,1251.19c-5.076-10.173-10.158-15.238-25.397-10.173
		l-60.953,20.326c-10.158,5.087-25.398,10.152-40.637,5.087c-10.158-5.087-20.316-20.326-25.398-30.479
		c0-10.174-5.081-25.394,0-40.632c5.082-10.174,10.158-20.326,30.479-25.413l66.035-20.306
		c15.234-5.087,15.234-10.174,10.157-20.326l5.077-5.086l20.321,60.957h-5.082c0-10.152-5.077-15.239-20.316-10.152l-66.034,25.392
		c-10.158,0-35.555,10.173-25.397,35.566c10.158,30.479,35.555,20.306,50.795,20.306l55.876-20.306
		c15.239-5.087,20.315-10.174,15.239-25.394h5.076l15.24,35.546L204.341,1251.19L204.341,1251.19z"/>
	<path fill-rule="evenodd" clip-rule="evenodd" fill="#004B84" d="M112.91,1362.933l-30.475-60.958h5.077
		c5.082,10.153,10.158,15.239,20.321,10.153l91.432-45.698c10.158-5.087,5.076-10.173,5.076-20.326h5.082l25.397,55.871
		l-5.081,5.087c0-10.152-5.078-15.24-20.316-10.152l-86.355,40.631c-10.158,5.067-10.158,15.239-5.077,25.393H112.91
		L112.91,1362.933z"/>
	<path fill-rule="evenodd" clip-rule="evenodd" fill="#004B84" d="M239.896,1464.523c-10.157-10.152-10.157-10.152-25.397-5.087
		l-20.316,15.24c-15.239-5.067-30.479-20.306-40.636-35.546c-25.398-40.652-5.077-76.197,20.32-96.522
		c35.556-20.307,76.188-15.24,101.59,15.238c5.076,15.24,5.076,35.566,10.158,35.566c0,5.065,5.076,5.065,10.158,5.065l5.076,5.088
		l-40.632,25.392v-5.066c10.157-15.239,20.315-40.632,10.157-60.958c-15.239-20.325-45.713-10.153-76.192,10.153
		c-10.157,5.086-55.871,35.565-35.555,66.044c10.158,10.153,15.24,10.153,25.398,5.066l15.239-10.152
		c15.234-5.087,10.158-10.153,5.076-25.393h5.082l30.474,50.784V1464.523L239.896,1464.523z"/>
	<path fill-rule="evenodd" clip-rule="evenodd" fill="#004B84" d="M244.978,1555.96l-40.637-50.806l5.082-5.066
		c5.076,5.066,10.158,15.22,20.316,5.066l76.191-66.024c10.158-5.086,5.082-15.239,0-20.326l5.082-5.086l40.632,50.805l-5.077,5.086
		c-5.081-5.086-10.162-15.238-20.32-5.086l-76.192,60.958c-10.158,10.153-5.077,15.239,0,25.393L244.978,1555.96L244.978,1555.96z"
		/>
	<path fill-rule="evenodd" clip-rule="evenodd" fill="#004B84" d="M290.691,1596.591c10.158,5.067,15.239,5.067,20.321-5.086
		l66.03-71.111c5.081-10.152,0-15.239-5.082-25.392h5.082l40.637,35.545c10.163,5.087,40.636,30.479,20.321,55.892
		c-15.24,15.22-35.555,10.152-40.637,5.066h-5.076c15.234,10.153,20.315,30.479,5.076,50.805
		c-10.158,10.153-30.479,20.307-60.958-5.087l-50.79-40.632H290.691L290.691,1596.591z M336.405,1611.832
		c-5.077,10.153-5.077,15.239,0,20.306c15.239,10.173,30.479,0,35.555-10.152c20.326-20.326,10.163-35.546,0-45.72h-5.077
		L336.405,1611.832L336.405,1611.832z M371.96,1571.199c20.326,15.24,30.484,10.154,40.642-5.086
		c10.158-10.152,15.24-20.326,0-30.479c-5.081-10.153-10.157-5.087-10.157,0L371.96,1571.199L371.96,1571.199z"/>
	<path fill-rule="evenodd" clip-rule="evenodd" fill="#004B84" d="M544.666,1698.181c-20.315,35.546-60.953,45.719-91.432,25.393
		c-35.555-20.326-45.713-55.871-20.316-96.503c20.316-35.565,60.953-45.718,91.433-25.412
		C554.824,1616.897,570.063,1657.549,544.666,1698.181L544.666,1698.181z M458.315,1647.376c-5.081,15.24-30.474,55.871,0,71.111
		c25.398,15.239,50.795-25.393,60.953-40.633c15.239-25.392,25.397-55.87,0-71.11
		C498.953,1591.505,473.555,1621.985,458.315,1647.376L458.315,1647.376z"/>
	<path fill-rule="evenodd" clip-rule="evenodd" fill="#004B84" d="M661.496,1784.531c-20.316,10.153-35.561,15.24-60.954,10.153
		c-40.636-15.238-50.794-55.87-40.636-91.437c15.234-40.631,50.79-60.938,91.432-45.698c15.24,5.067,25.397,20.306,30.474,20.306
		c5.082,5.087,5.082,0,10.158-5.086l5.082,5.086l-15.24,40.633h-5.077c0-20.307-10.157-45.719-30.479-55.871
		c-25.397-5.067-40.636,20.325-50.794,50.805c-5.082,10.152-10.158,30.479-10.158,45.717c5.076,15.24,15.239,25.393,20.316,25.393
		c15.239,5.067,30.479,5.067,50.794-10.152L661.496,1784.531L661.496,1784.531z"/>
	<path fill-rule="evenodd" clip-rule="evenodd" fill="#004B84" d="M803.722,1809.923c-15.24,15.24-35.561,25.393-55.876,20.327
		c-45.714-10.174-60.954-45.72-55.877-81.284c5.082-40.632,40.637-66.024,76.193-60.957c20.321,5.086,30.479,15.238,35.561,15.238
		c5.076,0,5.076,0,10.153-5.066h5.082l-10.158,45.719h-5.076c0-20.326-15.24-45.719-35.561-50.805
		c-25.397-5.086-35.556,25.393-45.714,60.958c0,10.152,0,30.478,0,45.718c5.082,15.24,20.316,20.306,25.398,20.306
		c15.239,5.087,30.473,0,50.794-15.24L803.722,1809.923L803.722,1809.923z"/>
	<path fill-rule="evenodd" clip-rule="evenodd" fill="#004B84" d="M956.106,1769.292c0,40.631-25.402,71.111-66.034,71.111
		c-35.561,0-66.034-30.48-66.034-71.111c0-45.719,30.473-71.111,66.034-71.111C925.628,1698.181,956.106,1723.574,956.106,1769.292
		L956.106,1769.292z M854.512,1769.292c0,15.238,5.082,66.023,35.561,66.023c30.479,0,35.556-50.785,35.556-66.023
		c0-30.479-10.163-66.045-35.556-66.045C864.67,1703.248,854.512,1738.814,854.512,1769.292L854.512,1769.292z"/>
	<path fill-rule="evenodd" clip-rule="evenodd" fill="#004B84" d="M981.499,1830.25c10.163-5.087,15.239-5.087,10.163-20.327
		l-15.239-96.502c-15.239-10.174-20.316-10.174-20.316-10.174v-5.066l35.556-5.086l81.264,71.11l0,0l-10.153-60.958
		c0-10.152-5.076-15.238-20.314-15.238v-5.067l40.631-10.173v5.086c-15.239,5.087-15.239,10.154-10.163,20.326l20.326,116.83h-5.086
		l-101.59-91.438l0,0l15.239,81.263c0,15.24,5.086,15.24,20.326,15.24v5.087l-40.643,10.152V1830.25L981.499,1830.25z"/>
	<path fill-rule="evenodd" clip-rule="evenodd" fill="#004B84" d="M1184.679,1784.531l-60.958,20.306l-5.076-5.065
		c10.163-5.087,20.326-10.173,15.239-20.325l-30.479-91.437c-5.076-15.24-15.238-10.154-25.392-10.154v-5.086l60.958-20.306
		l5.076,5.086c-10.163,5.067-20.326,5.067-15.239,20.306l30.479,91.438c5.076,10.153,15.24,10.153,25.393,10.153V1784.531
		L1184.679,1784.531z"/>
	<path fill-rule="evenodd" clip-rule="evenodd" fill="#004B84" d="M1392.936,1672.769l-55.872,30.479v-5.066
		c10.163-5.086,15.239-10.172,5.076-20.326l-50.795-86.35l0,0l20.326,126.982l-5.086,5.086l-101.59-81.264l0,0l50.794,81.264
		c5.077,15.24,10.164,15.24,25.403,10.153l5.076,5.087l-40.632,20.324v-5.085c10.152-5.087,10.152-10.153,5.076-20.326
		l-50.795-81.264c-5.076-10.153-10.163-10.153-20.315-5.087l-5.076-5.066l40.631-25.413l81.274,66.045l-15.239-101.589
		l40.631-25.393l5.077,5.066c-10.153,5.086-15.229,5.086-5.077,20.326l45.719,81.264c5.077,10.152,10.153,10.152,20.316,5.086
		L1392.936,1672.769L1392.936,1672.769z"/>
	<path fill-rule="evenodd" clip-rule="evenodd" fill="#004B84" d="M1453.894,1616.897l-50.796,40.652v-5.086
		c5.077-5.087,10.163-10.153,5.077-20.326l-66.035-76.177c-5.076-10.174-15.239-5.087-20.316,0l-5.076-5.087l50.795-40.632
		l5.077,5.066c-5.077,5.086-15.24,10.173-5.077,20.326l60.958,76.197c10.153,10.153,15.229,5.065,25.394,0V1616.897
		L1453.894,1616.897z"/>
	<path fill-rule="evenodd" clip-rule="evenodd" fill="#004B84" d="M1540.243,1530.547l-71.111,76.197l-5.086-5.086
		c5.086-5.067,10.162-10.153,0-20.306l-71.11-66.045c-10.154-10.153-15.24-5.066-20.316,0h-5.077l45.719-50.785l5.077,5.086
		c-10.163,10.153-15.24,15.24,0,25.394l66.034,66.024c10.152,5.086,15.239,5.086,20.315-5.066
		c20.316-20.326,15.24-40.652,5.076-60.958l5.087-5.087L1540.243,1530.547L1540.243,1530.547z"/>
	<path fill-rule="evenodd" clip-rule="evenodd" fill="#004B84" d="M1631.68,1403.566l-35.565,50.805l-5.076-5.087
		c5.076-10.153,10.162-10.153,5.076-15.239c-5.076-5.087-20.316-5.087-30.479-10.153l-20.316,35.545
		c5.076,15.24,10.163,20.326,15.24,25.413c5.076,0,10.162-5.087,15.238-10.173l5.076,5.086l-20.314,30.479l-5.077-5.087
		c5.077-10.152,0-15.239-10.163-25.393l-66.034-101.59l0,0l111.753,25.394c25.393,5.086,30.479,5.086,35.556-5.088L1631.68,1403.566
		L1631.68,1403.566z M1560.56,1423.891l-50.796-10.173l30.479,40.652L1560.56,1423.891L1560.56,1423.891z"/>
	<path fill-rule="evenodd" clip-rule="evenodd" fill="#004B84" d="M1636.757,1383.259c5.076-10.173,5.076-15.239-5.077-20.326
		l-86.36-40.632c-20.315,0-20.315,5.066-20.315,5.066h-5.076l15.238-35.546l106.667-25.392l0,0l-55.871-25.413
		c-10.164-5.065-20.326-5.065-25.402,10.173l-5.077-5.086l15.239-35.546h5.076c0,15.22,0,20.307,10.164,20.307l106.666,50.805v5.066
		l-137.146,30.479l0,0l76.197,35.565c10.153,5.066,15.229,5.066,25.393-10.172l5.076,5.086l-20.315,35.565H1636.757
		L1636.757,1383.259z"/>
	<path fill-rule="evenodd" clip-rule="evenodd" fill="#004B84" d="M1677.389,1098.795c40.643,15.239,60.959,50.806,50.795,86.351
		c-10.152,35.565-45.719,55.871-86.351,45.719c-45.719-15.239-60.959-50.785-55.871-86.351
		C1596.114,1108.949,1631.68,1088.643,1677.389,1098.795L1677.389,1098.795z M1646.909,1195.32
		c20.316,5.065,66.035,20.306,71.122-10.174c10.152-35.545-35.566-45.719-50.806-50.785c-30.469-10.172-66.025-10.172-71.111,15.24
		C1585.962,1174.994,1621.517,1190.233,1646.909,1195.32L1646.909,1195.32z"/>
	<path fill-rule="evenodd" clip-rule="evenodd" fill="#004B84" d="M864.67,204.814c-5.076,30.479-25.393,60.952-55.872,81.269
		c30.479,0,66.035,0,91.427-15.234c20.326-5.082,40.642-10.158,60.958-5.082c-5.077-5.076-20.316-15.239-30.479-20.316
		l-30.479-25.397c71.12-25.397,147.309,0,198.103,60.954c5.076,15.239,20.316,25.397,20.316,45.712
		c-25.393-20.315-55.872-40.636-86.351-55.871c-5.076-5.082-5.076,0-5.076,0v5.076c45.708,30.479,96.503,66.034,147.309,86.351
		c20.315,10.157,40.631,25.397,60.947,35.556c-25.393-40.632-45.719-86.351-66.035-132.064
		c60.959,5.082,111.754,55.872,132.07,106.666c10.162,25.398,15.238,55.877,15.238,86.356
		c-20.315-30.479-35.555-66.034-55.881-91.432c-5.077,0-5.077,0-5.077,5.076l50.796,86.356
		c35.555,40.637,66.034,81.269,91.437,121.906l5.076-5.082c-10.162-45.713-10.162-91.427-15.239-142.222
		c55.871,35.556,91.427,101.59,86.35,167.619c0,25.397-5.076,45.714-15.238,71.116l0,0l-20.316-106.671c0,0-5.076-5.076-5.076,0
		l-5.077,5.082c10.153,50.794,10.153,101.589,35.546,142.227c10.162,35.555,20.326,71.111,25.402,106.666h5.076
		c10.163-45.713,25.403-91.432,40.642-132.063l5.077-5.082c40.631,60.953,40.631,147.303,5.076,208.255
		c-10.153,15.24-20.315,30.479-35.556,40.643l25.402-106.672c-5.086-5.082-5.086-5.082-10.162-5.082l-5.076,10.158l-20.316,101.595
		c0,45.718-5.087,96.503-20.326,142.221c5.087,5.087,5.087,0,10.163,0c25.402-40.632,60.947-76.196,91.426-111.742
		c10.164,0,5.088,10.153,5.088,15.239c10.152,76.177-30.479,157.461-101.59,193.007c-5.087,5.087-15.24,5.087-20.326,10.173v-10.173
		c20.326-25.393,40.642-50.785,60.958-81.264c0,0,0-5.087-5.076-5.087h-5.077c-30.479,45.719-71.121,91.438-86.351,142.222
		c-10.162,20.326-25.402,45.718-35.564,66.044h5.086c35.556-35.564,86.351-50.805,126.982-76.196l0,0
		c-10.153,60.958-50.796,121.915-111.743,147.308c-25.402,10.153-45.719,15.239-71.121,15.239v-5.086
		c30.479-20.307,60.958-35.546,86.36-60.958c5.077,0,0-5.066,0-5.066c-35.564,20.306-66.045,40.632-96.513,60.958
		c-25.402,35.546-60.958,66.024-96.514,91.416c0,0,0,0,0,5.087c45.719-20.326,96.514-20.326,142.222-25.393
		c0,15.24-15.24,25.393-20.316,35.546c-45.708,50.805-111.742,71.11-177.776,60.958c-5.076-5.087-20.316-5.087-25.393-10.153
		l101.579-25.393c0-5.086,5.077-5.086,0-10.173l0,0c-35.555,5.087-71.11,15.239-106.666,25.393
		c-25.402,15.239-55.871,25.412-81.273,35.565c-5.077,5.087-5.077,5.087-5.077,10.153c30.479,10.172,66.035,15.238,96.514,25.412
		v5.066c-40.642,35.565-111.752,55.871-167.624,35.565c-20.316-15.239-50.795-10.174-71.11,0
		c-15.24,10.152-20.326,25.393-30.479,35.546h-10.163c10.163-25.394,35.556-50.785,60.958-60.958
		c20.316-10.153,55.871-10.153,76.188,0c5.087-5.067,10.163-5.067,10.163-5.067c0-5.086-5.076-5.086-10.163-10.152
		c-35.556-10.174-81.264,0-111.743,25.393c-10.162,10.153-15.239,25.392-25.402,30.479c5.087-20.325,15.24-45.719,35.556-60.957
		c-5.077-35.566-15.239-76.198-40.632-101.591c-10.163,0-15.239,15.24-20.321,20.326c-15.234,25.393-25.397,55.872-20.316,81.265
		c15.24,15.238,25.398,40.632,30.474,60.957c-10.158-5.087-15.234-20.325-25.393-30.479c-30.479-25.393-76.192-35.566-116.83-20.326
		c0,0-5.076,5.086,0,5.086c20.316,0,40.637-5.086,60.954,0c35.555,10.153,66.034,30.479,76.192,66.025
		c-10.158,5.086-10.158-15.24-20.316-20.307c-15.239-15.239-40.637-25.413-66.034-25.413
		c-60.953,30.479-137.145,20.326-182.864-25.392c30.479-15.24,66.034-20.307,96.513-30.479
		c-10.158-35.546-45.713-30.479-71.116-50.785c-40.637-15.239-81.269-25.393-121.906-35.565c0,0-5.076,0-10.157,5.086
		c5.081,10.153,20.315,5.087,30.479,10.153l76.187,20.326v5.066c-66.029,25.412-147.303,5.086-198.093-45.699
		c-10.164-15.238-25.403-30.479-30.484-50.805c45.719,5.087,86.356,15.24,126.992,20.326c5.076,5.066,10.158,10.153,20.316,5.066
		c-35.555-25.393-66.034-55.871-101.589-91.417c-30.479-20.326-55.877-40.651-91.432-60.958h-5.077v5.088
		c30.475,25.392,60.948,45.698,91.433,66.023c-71.116,0-137.15-40.632-162.548-106.676c-10.157-20.306-20.315-40.632-20.315-66.024
		c40.637,30.479,91.431,50.784,126.986,81.263c0-10.152-10.162-15.238-15.239-25.392c-15.24-30.479-25.398-60.958-40.637-96.503
		c-15.234-25.412-35.555-55.872-55.872-86.351c0,0,0,5.066-5.081,5.066c20.315,30.479,40.636,60.958,55.876,91.437
		c-40.637-10.152-71.116-45.719-91.433-81.264c-20.315-40.652-25.397-91.437-15.239-137.155
		c30.479,35.565,66.034,71.11,86.351,111.742l0,0c-10.158-50.784-5.077-106.656-10.158-152.379l-20.316-96.508
		c-5.081,0-5.081-5.076-10.158,0l0,0c10.158,35.556,15.235,71.111,20.316,106.671c-20.316-20.322-30.479-45.719-45.713-71.116
		c-20.321-60.954-10.158-126.982,25.397-177.782l0,0c15.235,45.718,30.475,91.432,40.633,137.15
		c15.239-50.795,30.479-101.59,50.794-147.309c5.082-35.555,10.158-66.03,15.24-101.589c0,0-5.082-5.078-5.082,0
		c-10.158,30.479-15.235,71.115-25.397,106.671c-25.393-66.035-15.234-152.385,35.556-208.257l20.32-15.24
		c5.077,45.713,15.235,91.427,5.077,137.146c30.484-45.719,66.04-86.351,106.671-126.988l55.877-81.273c0-5.076,0-5.076-5.082-5.076
		h-5.076c-20.322,25.397-40.637,55.876-60.958,86.35c-5.076-71.116,45.718-137.145,106.671-167.624
		c15.234-10.158,35.555-15.234,55.871-15.234c-20.315,40.632-40.637,86.351-76.192,126.982c10.164,0,10.164-10.158,20.322-10.158
		c55.871-40.637,126.987-60.953,187.94-91.432c5.081-5.076,5.081-10.158,0-10.158c-30.475,15.239-60.954,30.479-91.433,40.637
		C697.051,240.369,793.559,230.211,864.67,204.814L864.67,204.814z M879.909,291.164c30.479,15.24,66.034,30.475,96.514,50.795
		c-25.393,5.082-50.795,15.24-76.197,20.316c35.565,30.479,86.351,40.636,132.068,35.556c25.402-5.077,50.795-15.235,66.034-30.475
		l-86.35,5.076l0,0c-5.077-5.076,0-10.157,0-10.157l86.35-10.158c137.146,55.871,253.975,167.624,314.933,304.77h-5.086
		c-30.479-45.719-86.352-60.954-132.069-86.351l0,0c0,15.239,5.087,30.473,10.163,45.713
		c25.402,50.794,76.187,86.355,137.146,91.432c-25.393-20.315-50.795-35.556-76.188-50.794v-10.164
		c0-5.077,5.076-5.077,10.152-5.077c20.316,20.316,50.796,35.561,71.121,55.876c20.316,66.035,40.632,126.987,40.632,198.098
		c-10.162-55.876-55.871-91.432-91.437-137.145c-5.076,10.158-5.076,20.315-5.076,30.479c0,66.029,30.479,126.982,86.351,157.465
		c0,0,0-5.086,0-10.172c-15.24-20.311-30.47-45.709-40.632-71.106l5.076-5.076c20.315,25.397,35.556,50.795,50.794,81.269
		c-5.076,55.872-15.238,121.916-30.479,177.787l-5.076-5.087c5.076-35.545-10.153-76.197-20.315-111.742
		c-10.163-10.153-10.163-25.393-15.24-35.565c-5.076,5.087-10.162,10.173-10.162,15.239c-30.48,60.958-25.394,137.155,20.325,187.94
		c0-25.393-10.163-45.718-10.163-66.024c0-5.087-10.162-20.326,0-25.393c5.077-5.087,5.077,0,10.163,0l10.153,86.35
		c-10.153,20.307-15.239,40.633-25.393,60.938c-5.086-15.22-5.086-25.393-10.163-40.632
		c-15.239-60.957-71.111-106.656-66.035-177.767c25.403-25.413,35.556-60.959,35.556-101.6
		c-5.076-25.397-5.076-50.795-15.239-76.192l-15.239,30.479c-20.315,40.631-10.153,81.269-10.153,126.987
		c0,5.086-5.076,10.153-10.162,5.086c-25.393-5.086-40.632-45.719-71.111-40.651c5.087,10.173,5.087,25.412,10.163,35.565
		c15.229,15.239,35.556,25.392,55.872,20.326c5.076,10.153,5.076,15.219,5.076,25.392c5.086,50.785,40.642,91.418,60.957,137.136
		c20.316,45.719,20.316,101.589-20.315,132.068h-5.087c20.315-35.545,25.402-86.35,10.163-126.981
		c-5.076-5.087-5.076-15.24-15.239-20.326c-25.393,60.958-71.11,121.916-45.719,193.026c10.164-15.24,15.24-35.565,20.326-50.784
		c5.076-10.174,0-25.414,10.152-35.566c5.077,0,5.077,5.087,10.164,10.152l-25.402,86.351
		c-45.719,45.72-96.504,86.351-152.375,116.83c-25.402,20.326-66.044,20.326-71.121,55.871
		c15.239-5.066,35.556-15.239,50.795-25.393c223.495-111.742,370.804-365.728,355.564-609.534
		c-15.24-248.898-172.701-477.47-401.282-563.82C1032.294,281.006,951.03,255.608,879.909,291.164L879.909,291.164z
		 M869.751,296.245c-35.555,0-81.269-5.082-101.589,20.316h25.397c5.082-5.082,10.164-15.24,20.316-15.24
		c5.082,0,15.24,5.082,15.24,10.158c20.321,0,40.636,0,60.958-5.077C884.996,306.403,879.909,296.245,869.751,296.245
		L869.751,296.245z M813.875,311.48c-5.077,0-10.153,0-15.235,10.158c0,5.081,0,10.163,10.158,15.239
		c5.077,5.082,15.24,5.082,15.24,0c5.076-5.076,5.076-10.158,5.076-15.239C829.115,311.48,818.957,311.48,813.875,311.48
		L813.875,311.48z M829.115,357.199c-45.713-35.561-106.667-25.398-162.538-25.398c-238.735,91.432-401.283,335.243-401.283,589.217
		c-5.077,259.062,157.466,502.873,391.119,599.376c0-10.152-5.076-20.306-10.158-25.392
		c-81.273-35.566-152.385-86.351-208.255-152.395c-10.158-30.479-20.321-55.872-25.398-86.351l5.077-5.067c0,0,5.081-5.086,5.081,0
		l25.398,86.351c25.397-66.045-15.24-132.068-35.556-193.026l-5.081-5.087c-10.158,20.326-20.316,50.806-20.316,76.198
		c-5.082,25.392,5.082,50.805,10.158,76.196c-5.076,0-5.076-10.152-10.158-15.238c-25.402-20.326-30.479-66.025-20.321-101.59
		c15.239-55.872,76.192-91.438,81.274-157.461c0-5.088,0-20.326,5.076-25.394c5.081,5.067,15.239,0,25.397,0
		c25.397-5.086,40.637-30.479,45.719-50.805c-35.556-10.152-50.795,30.479-81.274,40.632c0-5.066-5.076-10.152-5.076-15.239
		c10.158-45.709,10.158-111.743-25.398-152.38c-10.157,55.877-25.397,132.074,20.316,177.792v20.306
		c-5.076,71.111-76.192,111.744-81.274,187.94c-5.077,0,0,5.087-5.077,5.087c-10.162-15.239-15.239-35.565-25.397-55.871
		c5.077-10.174,5.077-20.326,5.077-25.412c5.082-20.307,10.158-45.699,20.32-66.025c0,0,5.077,0,10.158,5.087
		c-10.158,30.479-15.239,60.938-20.32,91.417c20.32-20.307,30.479-50.785,40.637-76.178c10.163-40.652,5.081-96.523-20.316-127.002
		c-15.239,35.565-35.555,71.11-45.713,111.763c0,15.239,5.077,30.479,0,40.632c-15.239-55.871-30.479-116.829-25.397-182.864
		c15.234-25.397,25.397-50.794,45.713-76.191c5.077,0,10.158,0,10.158,5.076c-15.24,30.479-35.556,55.876-45.713,81.279
		c5.076,0,10.157-5.087,15.239-10.164c55.872-40.636,86.351-106.671,71.111-172.7h-5.081
		c-35.555,40.637-81.269,81.269-91.427,137.145v-5.081c5.076-71.111,20.315-137.146,45.713-198.098
		c25.397-20.321,45.713-30.479,71.116-50.795c5.076,0,10.157-5.082,10.157,0c5.077,5.077,5.077,10.158,0,10.158
		c-25.397,20.316-50.8,30.479-71.115,50.795c10.157,0,25.397,0,35.555-5.076c55.876-15.24,111.752-66.035,116.829-126.988
		c-25.397,10.158-45.712,20.316-71.11,30.474c-30.474,10.158-55.876,35.555-76.193,55.872
		c60.954-132.064,177.783-238.735,314.928-294.606l86.351,5.082l5.081,5.076c0,0,5.077,5.081,0,5.081h-86.35
		c50.794,45.719,132.063,25.398,193.017,20.316C854.512,377.514,839.277,367.356,829.115,357.199L829.115,357.199z M432.918,540.057
		c-5.076,0-10.158,10.158-10.158,20.321c5.082,5.076,15.24,10.158,25.398,5.076c5.076-5.076,10.157-10.158,5.076-20.316
		C448.158,540.057,443.076,540.057,432.918,540.057L432.918,540.057z M1311.671,545.138c-5.086,0-10.162,5.078-10.162,10.158
		c-5.077,5.082,0,15.24,5.076,15.24c5.086,5.076,15.238,5.076,15.238,0c5.077-5.082,10.164-10.158,5.077-15.24
		C1326.9,545.138,1321.823,545.138,1311.671,545.138L1311.671,545.138z M326.247,738.16c-5.077,5.077-5.077,15.235,0,20.316
		c0,5.082,10.158,10.158,20.32,5.082c5.077,0,10.158-10.164,5.077-20.322C351.644,733.078,331.329,733.078,326.247,738.16
		L326.247,738.16z M1413.261,748.318c-5.086,0-10.163,5.077-10.163,10.158c0,5.082,0,15.239,10.163,15.239
		c5.077,5.076,15.239,5.076,20.316-5.081c0-5.076,0-10.158-5.077-15.24C1428.5,748.318,1418.338,748.318,1413.261,748.318
		L1413.261,748.318z M524.351,783.874c-40.637,40.637-71.116,91.427-76.192,152.375c0,10.172,0,25.412,10.157,30.479
		c20.316-20.307,40.637-40.632,50.795-71.106C524.351,860.066,529.427,824.51,524.351,783.874L524.351,783.874z M1240.561,794.031
		c-10.163,66.035,5.076,137.151,55.871,182.869c0,5.066,10.153,5.066,10.153,0c10.162-66.039-20.316-132.073-60.948-182.869
		H1240.561L1240.561,794.031z M448.158,829.587c0,0-5.082,5.082-5.082,10.158c5.082,10.158,10.158,10.158,15.239,10.158
		c5.082-5.076,10.158-10.158,5.082-15.234C463.397,824.51,458.315,824.51,448.158,829.587L448.158,829.587z M1296.432,844.827
		c-5.087,5.076-5.087,15.239,0,15.239c5.077,5.076,10.153,5.076,15.239,0c5.076,0,5.076-5.082,5.076-15.239
		C1311.671,839.745,1296.432,839.745,1296.432,844.827L1296.432,844.827z M519.269,905.779c-5.076,0-10.158,5.082-10.158,15.239
		c5.082,0,10.158,5.077,15.24,5.077c5.076,0,10.157-5.077,10.157-15.234C534.508,905.779,524.351,905.779,519.269,905.779
		L519.269,905.779z M1230.397,921.018c-5.077,5.077-5.077,10.164-5.077,10.164c0,10.152,10.153,10.152,15.24,10.152
		c5.076,0,10.152-5.086,5.076-15.24C1245.637,921.018,1235.474,915.938,1230.397,921.018L1230.397,921.018z M300.85,971.814
		c-5.076,0-5.076,10.152,0,15.239c0,5.086,10.163,5.086,15.239,5.086c10.158,0,15.24-10.173,10.158-20.325
		C321.17,961.661,305.931,961.661,300.85,971.814L300.85,971.814z M666.577,1459.436c-10.164,0-20.322-5.065-25.398-5.065
		c15.234,35.545,30.474,71.11,55.872,101.59l55.876-10.174c-5.081-15.239-10.163-25.393-10.163-35.545
		C722.448,1484.849,691.969,1469.609,666.577,1459.436L666.577,1459.436z M1108.491,1459.436
		c-40.642,5.087-81.273,20.326-111.753,50.806c0,15.239-5.076,25.393-5.076,40.632c20.316,0,35.556,0,55.872,5.087
		C1072.926,1525.481,1088.166,1495.002,1108.491,1459.436L1108.491,1459.436L1108.491,1459.436z M752.927,1474.676
		c-5.081,20.326,5.077,50.805,10.158,71.11c20.316,5.087,40.637,15.24,55.872,20.326c5.082-10.152,5.082-30.479,10.158-40.632
		C808.798,1500.088,783.401,1484.849,752.927,1474.676L752.927,1474.676z M981.499,1479.762
		c-25.393,10.153-50.795,25.393-66.034,45.719l10.163,45.718c15.239-10.172,35.556-15.238,50.795-20.325
		c5.076-25.393,10.153-45.719,10.153-71.111H981.499L981.499,1479.762z M595.461,448.63c-5.082,0-15.24,0-15.24,10.158
		c-10.158,5.077-10.158,15.239-5.082,25.397c0,10.158,5.082,15.24,15.24,15.24c203.179,5.076,416.522,5.076,624.778,10.157
		c-5.076-15.239-5.076-35.555,0-50.794C1011.979,453.707,793.559,453.707,595.461,448.63L595.461,448.63z M615.776,428.309
		c-20.315,0-40.637,0-55.871,15.239c-10.158,15.24-10.158,30.479-10.158,45.713c15.235,50.795,81.269,25.397,116.83,35.555
		l330.161,5.082h182.864l0,0c15.239,5.082,30.479,0,40.632,0c5.086,0,0-5.082,0-10.158c-66.024,0-116.83,0-177.776-5.082
		l-446.997-5.077h-15.24c-10.158-10.157-20.315-25.397-15.239-40.636c0-15.24,10.157-25.398,25.397-30.479l370.804,5.081
		l259.051,5.082c5.086-5.082-5.077-10.163,0-10.163C1022.142,428.309,818.957,428.309,615.776,428.309L615.776,428.309z
		 M1047.534,545.138l-391.121-5.081l0,0l-15.234,848.269v5.087c198.098,0,365.722,10.153,568.902,5.065
		c10.153-279.356,5.076-558.733,10.153-853.34H1047.534L1047.534,545.138z M549.748,499.425c0,60.953-5.082,121.905,0,182.858
		l5.077,20.321c15.239,30.474,55.872,20.316,81.274,25.393l5.081-187.94h-45.718C575.14,540.057,554.824,519.741,549.748,499.425
		L549.748,499.425z M549.748,702.604c0,20.316-5.082,40.632,0,55.872c20.315,30.479,55.872,25.397,86.351,25.397
		c0-10.158,0-30.479,0-40.637l-50.795-5.077C564.982,738.16,554.824,717.839,549.748,702.604L549.748,702.604z M544.666,758.476
		v335.253v10.153c15.24,35.545,50.795,30.479,86.351,30.479c0-116.828,5.082-223.5,5.082-340.33c-20.322,0-35.556,5.082-50.795,0
		C564.982,788.955,549.748,773.715,544.666,758.476L544.666,758.476z M544.666,1114.035c0,20.326-10.158,45.719,5.082,60.959
		c20.315,25.392,55.872,15.239,81.269,15.239v-45.719C595.461,1149.601,559.906,1149.601,544.666,1114.035L544.666,1114.035z
		 M544.666,1174.994l-5.082,167.614c0,15.238,5.082,20.325,10.164,30.479c20.315,25.392,50.794,15.239,76.187,20.326
		c0-60.959,5.082-126.982,0-187.94C595.461,1205.472,559.906,1210.558,544.666,1174.994L544.666,1174.994z"/>
	<path fill-rule="evenodd" clip-rule="evenodd" fill="#004B84" d="M971.346,677.208c10.153,25.397,0,50.79-15.239,66.029
		c25.393-10.158,50.795-25.397,76.188-35.555c10.164,10.158,0,25.397,0,35.555h5.087l60.947-35.555c5.076,0,0,10.158,5.076,15.24
		c25.403-20.316,50.806-40.637,76.198-55.877c10.152,25.398-5.076,45.719-20.316,60.953c5.076,30.479-20.315,50.794-35.565,66.034
		c5.087,15.239-5.076,20.315-5.076,30.479l50.794,55.872c-25.392,30.479-50.794,60.953-76.187,81.279
		c-15.239-20.326-15.239-45.723-35.556-66.04c-15.238,15.24-35.555,25.397-60.958,25.397c5.077-10.157,20.316-5.081,25.403-15.239
		c5.076,0,15.239-5.082,20.316-15.24c-10.164,0-15.24,5.082-20.316,5.082c-5.087-10.158,5.076-5.082,5.076-10.158
		c20.316-5.081,35.555-15.239,45.708-30.479c-10.153,0-15.229,5.082-25.392,0l0,0c25.392-10.157,55.87-25.397,66.034-50.794
		c-10.164,0-20.316,10.157-30.479,10.157c0-5.076,5.077-10.157,10.163-10.157c20.316-10.158,45.719-30.474,50.795-55.872v-5.082
		c-15.239,5.082-25.402,20.322-35.556,20.322v-5.082c30.479-10.158,66.035-35.555,60.947-71.11l-5.076-5.082l-71.11,66.034
		c-10.163,15.24-30.479,25.397-30.479,45.713c-5.076,15.239-30.479,20.315-25.392,40.637
		c-20.326,10.158-15.239,30.474-30.479,40.632c-15.239,5.082-5.086,20.321-15.239,25.397
		c-20.316,20.321-40.632,25.397-66.034,25.397c5.076-10.157,20.315-10.157,30.479-15.234c10.153-5.082,25.393-10.164,30.47-25.398
		c-10.153,5.076-25.393,10.158-35.546,10.158c5.076-10.158,20.315-5.082,25.393-15.239c10.153-5.082,25.393-10.158,30.479-20.316
		c-10.163,0-25.402,10.158-35.556,10.158c5.077-10.158,20.316-10.158,25.393-15.24c10.163-5.081,25.403-15.239,30.479-30.474
		c-5.076,0-15.239,5.077-20.316,5.077c0-5.077,0-5.077,5.077-5.077c15.239-5.082,30.479-15.24,35.556-30.479
		c-5.076-5.076-10.153,10.158-15.24,0c25.402-15.24,60.958-40.637,55.872-76.192l-86.351,76.192
		c0,30.479-35.556,35.556-45.709,60.953c-25.402,10.158-35.555,40.637-60.957,50.795c-5.077,0-5.077,5.082-10.153,5.082
		c5.076-15.24,25.392-15.24,30.469-30.479h-15.239l5.086-5.082c10.153-5.076,25.393-10.158,35.556-20.316h-10.163
		c0-10.157,10.163-10.157,15.239-15.239c15.24-10.158,30.479-20.316,35.556-35.556c-10.153,0-15.239,5.081-25.393,5.081
		c0-10.157,20.316-10.157,25.393-20.315c20.316-15.24,40.643-35.561,35.556-60.958v-5.076
		c-50.795,25.397-101.59,50.794-147.304,86.35c-15.239,10.158-10.157,30.475-25.397,45.713
		c-15.239,40.637,30.479,76.198,30.479,116.83c-5.082,0-10.163,10.152-15.239,0c0-40.632-35.555-66.035-30.479-106.672
		c-66.03,30.479-55.872,111.758-121.906,142.237c0,10.153,10.163,5.065,10.163,5.065c142.222,30.479,284.444,35.566,421.599,5.088
		c0-10.153-10.163-10.153-15.25-10.153c-10.152-10.173-25.393-20.326-25.393-35.565c15.24-10.153,25.393-25.394,40.643-30.479
		c10.152,10.153,15.239,30.479,10.152,50.805c0,5.067-15.239,10.153-5.076,15.24c0,5.065,0,15.219,0,20.306l-40.643,10.152
		c-10.152,5.087-20.315,15.239-25.392,25.413c30.479,15.239,71.11,15.239,106.666,10.152l5.076,5.087
		c-10.152,5.066-20.316,10.153-25.393,20.306l15.24,10.153c-40.632,15.24-91.437,5.086-137.145-15.22
		c-5.077,5.066-10.164,10.153-10.164,15.22c50.795,15.24,132.068,5.086,152.385,76.197c-15.24,0-25.393-10.152-35.556-15.239
		c-5.076,5.087-5.076,20.326-10.152,30.479c-5.087-5.065-10.163-15.239-15.25-20.306c-40.632-30.479-96.503-10.173-132.059-30.479
		c-10.163,5.066-20.316,15.238-30.479,25.393c5.076-15.24,0-40.633-15.24-50.805c30.479-25.394,55.872-50.786,81.274-76.178
		c-5.076-5.087-15.239,0-20.316,0l-121.905,121.896h-5.087l-126.982-137.136c-5.081,0-10.163,0-20.321-5.086l5.082,10.152
		l152.384,157.482c5.077,10.152,0,20.306,0,25.392c-5.076,5.066-15.239,5.066-20.321,10.153l-10.157-5.087
		c-60.954-60.938-121.906-126.982-182.859-187.94c0,0-5.081,0-5.081,5.087c55.876,60.958,116.829,126.982,177.782,187.94
		c10.158,10.152,15.234,10.152,30.474,10.152c10.163,0,15.24-10.152,20.316-20.306c5.086-5.086,5.086-15.239,0-25.392
		c0-5.087-20.316-15.24-5.076-20.326l45.718-40.633c5.076,5.066,15.239,15.24,15.239,25.393c0,40.632-45.719,55.872-60.957,86.351
		c-10.153,5.086-25.398,5.086-35.556,5.086c-25.398-10.173-35.555-30.479-50.795-50.805l-152.385-157.461
		c5.082-5.087,10.164-10.153,15.24-15.239c10.158-5.087,25.397,5.086,25.397-5.087c-5.082-25.392,15.239-25.392,30.479-40.632
		c25.397-25.392,30.474-60.948,55.872-86.345c-10.158-5.082-15.24-10.158-20.316-20.321c-10.158-35.555,15.234-60.954,15.234-96.509
		c15.239-35.555,55.876-66.029,86.351-91.426c0,0,0,10.157,5.081,10.157l111.748-76.192
		C996.738,641.646,981.499,661.963,971.346,677.208L971.346,677.208z M717.372,1027.685c-10.163,0-20.321,5.086-20.321,10.152
		l167.619,177.788c5.081,5.086,10.163,5.086,15.239,0c0-5.067,0-10.153,0-15.24L717.372,1027.685L717.372,1027.685z
		 M844.354,712.763c-20.315,25.397-50.795,45.713-55.872,76.192c5.076,25.392-15.239,40.632-10.163,60.948
		c0,10.163,5.082,25.397,15.239,30.479c10.164-10.158,30.48-20.316,40.637-30.479c5.082-10.158-10.157-10.158-15.239-20.316
		c10.158-10.158,20.321-20.316,25.397-35.556c0-10.158,5.082-20.316,0-25.397c-5.077,5.081-10.158,15.239-20.315,10.157l0,0
		c15.239-15.233,30.473-40.632,30.473-60.953C849.436,712.763,849.436,707.681,844.354,712.763L844.354,712.763z M971.346,636.565
		l-101.595,76.198c0,20.315-5.081,30.474-15.239,45.713c5.082,10.158,5.082,25.397-5.076,35.555
		c0,15.239-20.321,25.397-5.082,35.556c20.316-30.474,50.795-60.953,86.35-71.111c20.326-15.24,35.556-40.637,30.479-66.034
		l-20.316,20.321c-10.163,5.076-15.239,15.234-25.402,15.234C945.943,702.604,981.499,672.125,971.346,636.565L971.346,636.565z
		 M1022.142,1119.122c-10.163,5.067-15.24,10.153-20.326,20.306c40.643,20.326,96.513,0,132.068,35.566
		c0-5.087,5.087-10.154,5.087-15.24c5.076-10.152,15.239,5.086,25.392,5.086c-15.239-20.325-40.642-30.479-71.11-35.564
		C1067.85,1134.361,1042.458,1129.275,1022.142,1119.122L1022.142,1119.122z M1108.491,1083.556
		c-20.325,5.087-45.719-25.393-55.881,5.087c30.479,15.239,66.034,20.306,106.676,15.239l-5.076-5.087l5.076-10.152
		L1108.491,1083.556L1108.491,1083.556z"/>
</g>
</svg>
