<?xml version="1.0" encoding="utf-8"?>
<!-- Generator: Adobe Illustrator 14.0.0, SVG Export Plug-In . SVG Version: 6.00 Build 43363)  -->
<!DOCTYPE svg PUBLIC "-//W3C//DTD SVG 1.1//EN" "http://www.w3.org/Graphics/SVG/1.1/DTD/svg11.dtd">
<svg version="1.1" id="Livello_1" xmlns="http://www.w3.org/2000/svg" xmlns:xlink="http://www.w3.org/1999/xlink" x="0px" y="0px"
	 width="408px" height="408px" viewBox="0 0 408 408" enable-background="new 0 0 408 408" xml:space="preserve">
<g>
	<defs>
		<rect id="SVGID_1_" x="-94.138" y="-216.445" width="595.275" height="841.89"/>
	</defs>
	<clipPath id="SVGID_2_">
		<use xlink:href="#SVGID_1_"  overflow="visible"/>
	</clipPath>
	<g clip-path="url(#SVGID_2_)">
		<defs>
			<rect id="SVGID_3_" x="-94.138" y="-216.445" width="595.275" height="841.89"/>
		</defs>
		<clipPath id="SVGID_4_">
			<use xlink:href="#SVGID_3_"  overflow="visible"/>
		</clipPath>
		<path clip-path="url(#SVGID_4_)" fill-rule="evenodd" clip-rule="evenodd" fill="#9D9D9C" d="M5.104,204.775
			C5.104,95.187,93.941,6.349,203.53,6.349c109.589,0,198.424,88.837,198.424,198.426c0,109.588-88.835,198.425-198.424,198.425
			C93.941,403.2,5.104,314.363,5.104,204.775"/>
	</g>
	<g clip-path="url(#SVGID_2_)">
		<defs>
			<path id="SVGID_5_" d="M9.043,204.502c0,107.396,87.061,194.454,194.457,194.454c107.397,0,194.456-87.059,194.456-194.454
				c0-107.398-87.059-194.458-194.456-194.458C96.104,10.043,9.043,97.104,9.043,204.502"/>
		</defs>
		<clipPath id="SVGID_6_">
			<use xlink:href="#SVGID_5_"  overflow="visible"/>
		</clipPath>
		
			<linearGradient id="SVGID_7_" gradientUnits="userSpaceOnUse" x1="-73.6597" y1="439.3936" x2="-72.6597" y2="439.3936" gradientTransform="matrix(0 388.9131 388.9131 0 -170682.4844 28657.1641)">
			<stop  offset="0" style="stop-color:#FFFFFF"/>
			<stop  offset="0.4365" style="stop-color:#FCFCFC"/>
			<stop  offset="0.7633" style="stop-color:#F2F2F3"/>
			<stop  offset="1" style="stop-color:#E5E5E6"/>
		</linearGradient>
		<rect x="9.043" y="10.043" clip-path="url(#SVGID_6_)" fill="url(#SVGID_7_)" width="388.913" height="388.913"/>
	</g>
	<g clip-path="url(#SVGID_2_)">
		<defs>
			<path id="SVGID_8_" d="M52.421,204.5c0,83.439,67.638,151.078,151.078,151.078c83.439,0,151.08-67.639,151.08-151.078
				c0-83.438-67.641-151.078-151.08-151.078C120.059,53.422,52.421,121.062,52.421,204.5"/>
		</defs>
		<clipPath id="SVGID_9_">
			<use xlink:href="#SVGID_8_"  overflow="visible"/>
		</clipPath>
		
			<linearGradient id="SVGID_10_" gradientUnits="userSpaceOnUse" x1="-73.5229" y1="439.3789" x2="-72.5229" y2="439.3789" gradientTransform="matrix(0 302.1557 302.1557 0 -132557.3438 22268.5684)">
			<stop  offset="0" style="stop-color:#F3F3F2"/>
			<stop  offset="1" style="stop-color:#EFEDEB"/>
		</linearGradient>
		<rect x="52.421" y="53.422" clip-path="url(#SVGID_9_)" fill="url(#SVGID_10_)" width="302.158" height="302.156"/>
	</g>
	<g clip-path="url(#SVGID_2_)">
		<defs>
			<rect id="SVGID_11_" x="-94.138" y="-216.445" width="595.275" height="841.89"/>
		</defs>
		<clipPath id="SVGID_12_">
			<use xlink:href="#SVGID_11_"  overflow="visible"/>
		</clipPath>
		<g opacity="0.07" clip-path="url(#SVGID_12_)">
			<g>
				<defs>
					<rect id="SVGID_13_" x="5.075" y="6.365" width="396.851" height="396.852"/>
				</defs>
				<clipPath id="SVGID_14_">
					<use xlink:href="#SVGID_13_"  overflow="visible"/>
				</clipPath>
				<g clip-path="url(#SVGID_14_)">
					<defs>
						<path id="SVGID_15_" d="M5.075,204.791C5.075,95.202,93.912,6.365,203.5,6.365c109.589,0,198.425,88.837,198.425,198.426
							c0,109.588-88.836,198.426-198.425,198.426C93.912,403.217,5.075,314.379,5.075,204.791"/>
					</defs>
					<clipPath id="SVGID_16_">
						<use xlink:href="#SVGID_15_"  overflow="visible"/>
					</clipPath>
					
						<linearGradient id="SVGID_17_" gradientUnits="userSpaceOnUse" x1="-73.6689" y1="439.3945" x2="-72.6689" y2="439.3945" gradientTransform="matrix(0 396.8505 396.8505 0 -174170.5469 29241.9336)">
						<stop  offset="0" style="stop-color:#FFFFFF"/>
						<stop  offset="0.3014" style="stop-color:#FCFCFC"/>
						<stop  offset="0.4399" style="stop-color:#F1F0F2"/>
						<stop  offset="0.5451" style="stop-color:#DEDDDF"/>
						<stop  offset="0.6335" style="stop-color:#C5C3C6"/>
						<stop  offset="0.7114" style="stop-color:#A7A4A8"/>
						<stop  offset="0.7818" style="stop-color:#848186"/>
						<stop  offset="0.8467" style="stop-color:#5F5D62"/>
						<stop  offset="0.9072" style="stop-color:#3A393E"/>
						<stop  offset="0.962" style="stop-color:#18181D"/>
						<stop  offset="1" style="stop-color:#010202"/>
					</linearGradient>
					<rect x="5.075" y="6.365" clip-path="url(#SVGID_16_)" fill="url(#SVGID_17_)" width="396.851" height="396.852"/>
				</g>
			</g>
		</g>
		<path clip-path="url(#SVGID_12_)" fill-rule="evenodd" clip-rule="evenodd" fill="#4D4D3C" d="M169.817,261.167
			c-1.341,2.438-2.989,4.764-4.94,6.929c-8.324,9.211-20.281,13.221-31.711,11.807c-1.026-0.129-2.139-0.444-3.17-0.496
			c-0.544-0.031,0.989-0.479,1.492-0.704c2.356-1.058,4.759-1.833,7.183-2.361c2.688-0.577,5.36-1.442,7.975-2.612
			c4.122-1.833,7.774-4.297,10.933-7.176L169.817,261.167z M151.452,242.988c-2.227,1.688-4.676,3.138-7.339,4.318
			c-11.357,5.039-23.915,3.854-33.787-2.081c-0.88-0.528-1.777-1.273-2.687-1.74c-0.488-0.249,1.097-0.042,1.652-0.042
			c2.574,0,5.091,0.26,7.52,0.763c2.688,0.563,5.489,0.858,8.354,0.854c4.515-0.005,8.855-0.776,12.91-2.123L151.452,242.988z
			 M142.074,218.917c-2.714,0.643-5.542,0.974-8.457,0.974c-12.43-0.011-23.414-6.193-30.018-15.615
			c-0.585-0.846-1.103-1.889-1.745-2.684c-0.347-0.424,1.015,0.406,1.522,0.628c2.357,1.048,4.542,2.302,6.557,3.756
			c2.232,1.604,4.665,3.005,7.287,4.168c4.122,1.831,8.405,2.892,12.662,3.306L142.074,218.917z M143.321,193.127
			c-2.744-0.516-5.463-1.357-8.126-2.541c-11.352-5.059-18.866-15.165-21.057-26.458c-0.187-1.013-0.232-2.168-0.503-3.158
			c-0.139-0.531,0.767,0.79,1.141,1.198c1.719,1.908,3.205,3.945,4.458,6.088c1.383,2.37,3.03,4.64,4.951,6.765
			c3.03,3.347,6.505,6.054,10.224,8.156L143.321,193.127z M154.964,170.074c-2.29-1.586-4.434-3.463-6.375-5.623
			c-8.318-9.225-11.067-21.512-8.468-32.717c0.243-0.998,0.674-2.08,0.833-3.094c0.088-0.542,0.379,1.031,0.545,1.553
			c0.802,2.453,1.326,4.918,1.599,7.379c0.296,2.726,0.881,5.474,1.772,8.191c1.398,4.287,3.47,8.168,6.012,11.604L154.964,170.074z
			 M175.001,153.74c-1.445-2.377-2.642-4.961-3.543-7.728c-3.827-11.803-1.336-24.144,5.604-33.323
			c0.627-0.816,1.461-1.628,2.025-2.488c0.295-0.455-0.078,1.093-0.134,1.645c-0.27,2.561-0.793,5.023-1.549,7.382
			c-0.839,2.616-1.424,5.356-1.725,8.203c-0.465,4.489-0.155,8.874,0.772,13.046L175.001,153.74z M199.958,146.953
			c-0.352-2.762-0.393-5.606-0.083-8.496c1.311-12.34,8.617-22.6,18.694-28.17c0.908-0.486,1.994-0.892,2.86-1.447
			c0.461-0.297-0.513,0.966-0.787,1.441c-1.29,2.232-2.771,4.275-4.423,6.119c-1.834,2.049-3.491,4.319-4.921,6.795
			c-2.252,3.907-3.754,8.039-4.613,12.229L199.958,146.953z M225.524,150.889c0.804-2.67,1.929-5.283,3.384-7.796
			c6.225-10.744,17.08-17.149,28.561-18.142c1.026-0.086,2.186-0.004,3.207-0.17c0.539-0.078-0.865,0.672-1.316,1
			c-2.086,1.519-4.268,2.773-6.535,3.795c-2.502,1.129-4.941,2.521-7.257,4.209c-3.65,2.658-6.707,5.822-9.196,9.303
			L225.524,150.889z M247.276,164.855c1.818-2.109,3.916-4.042,6.272-5.746c10.062-7.283,22.591-8.73,33.482-4.976
			c0.969,0.338,1.998,0.88,2.993,1.144c0.528,0.145-1.067,0.268-1.605,0.383c-2.522,0.543-5.03,0.802-7.515,0.811
			c-2.752,0.018-5.548,0.303-8.344,0.902c-4.418,0.945-8.504,2.594-12.197,4.762L247.276,164.855z M261.457,186.449
			c2.522-1.182,5.221-2.099,8.074-2.703c12.16-2.572,24.191,1.199,32.611,9.047c0.751,0.709,1.471,1.615,2.269,2.264
			c0.425,0.346-1.083-0.189-1.626-0.302c-2.518-0.531-4.92-1.31-7.188-2.306c-2.522-1.108-5.195-1.979-7.997-2.571
			c-4.416-0.931-8.818-1.078-13.076-0.601L261.457,186.449z M265.61,211.936c2.791-0.056,5.63,0.202,8.478,0.81
			c12.16,2.59,21.612,10.91,26.113,21.502c0.388,0.952,0.678,2.082,1.145,2.993c0.248,0.486-0.912-0.616-1.357-0.942
			c-2.092-1.502-3.967-3.192-5.635-5.024c-1.85-2.03-3.937-3.916-6.256-5.593c-3.656-2.641-7.623-4.567-11.699-5.856L265.61,211.936
			z M259.018,236.903c2.574,1.083,5.061,2.471,7.416,4.18c10.052,7.296,15.298,18.748,15.091,30.25
			c-0.024,1.019-0.222,2.17-0.171,3.192c0.031,0.545-0.579-0.931-0.854-1.405c-1.294-2.229-2.326-4.527-3.099-6.885
			c-0.858-2.604-2.003-5.175-3.437-7.64c-2.264-3.914-5.102-7.269-8.307-10.108L259.018,236.903z M242.828,257.044
			c1.912,2.02,3.614,4.298,5.07,6.819c6.205,10.746,6.34,23.342,1.461,33.763c-0.44,0.926-1.088,1.895-1.461,2.853
			c-0.197,0.508-0.154-1.088-0.211-1.642c-0.27-2.553-0.27-5.076-0.021-7.539c0.273-2.731,0.278-5.538-0.021-8.381
			c-0.481-4.485-1.704-8.71-3.476-12.606L242.828,257.044z M219.83,268.861c0.916,2.62,1.548,5.401,1.848,8.285
			c1.289,12.349-3.724,23.896-12.424,31.437c-0.776,0.674-1.768,1.295-2.49,2.01c-0.389,0.393,0.299-1.047,0.471-1.575
			c0.797-2.445,1.822-4.748,3.056-6.897c1.361-2.382,2.511-4.945,3.392-7.664c1.387-4.293,2-8.649,1.963-12.922L219.83,268.861z
			 M194.003,270.321c-0.234,2.771-0.783,5.563-1.689,8.323c-3.849,11.801-13.134,20.321-24.155,23.672
			c-0.984,0.291-2.138,0.468-3.097,0.829c-0.512,0.196,0.705-0.839,1.072-1.253c1.725-1.918,3.6-3.599,5.599-5.064
			c2.216-1.621,4.314-3.491,6.225-5.626c3.019-3.354,5.35-7.084,7.058-11.005L194.003,270.321z M178.693,265.199
			c-1.517,3.455-3.604,6.72-6.255,9.676c-8.277,9.223-20.177,13.221-31.582,11.78c-12.631-1.686-25.837,2.704-35.009,12.928
			c-0.901,1.004-1.741,2.035-2.523,3.102c0.057-13.905,8.075-27.164,21.561-33.189c2.341-1.043,4.733-1.824,7.151-2.343
			c2.678-0.58,5.34-1.438,7.945-2.6c7.442-3.33,13.377-8.66,17.454-15.076c-2.787,2.533-6.019,4.666-9.638,6.292
			c-11.296,5.046-23.793,3.839-33.623-2.134c-10.85-6.701-24.704-8.068-37.221-2.474c-1.222,0.545-2.413,1.148-3.557,1.803
			c5.691-12.678,18.385-21.524,33.145-21.524c2.569,0,5.065,0.271,7.477,0.778c2.684,0.569,5.47,0.869,8.319,0.869
			c8.151-0.004,15.728-2.455,22.052-6.66c-3.574,1.181-7.391,1.817-11.353,1.817c-12.367,0.005-23.284-6.198-29.846-15.665
			c-7.194-10.548-19.291-17.458-32.99-17.452c-1.341,0-2.673,0.068-3.982,0.197c10.337-9.271,25.515-12.162,38.997-6.144
			c2.341,1.046,4.516,2.312,6.52,3.765c2.216,1.607,4.636,3.02,7.241,4.185c7.442,3.325,15.36,4.18,22.834,2.919
			c-3.74-0.383-7.479-1.361-11.099-2.975c-11.295-5.045-18.758-15.17-20.913-26.496c-2.294-12.574-10.544-23.821-23.057-29.41
			c-1.227-0.545-2.469-1.031-3.713-1.442c13.196-4.25,28.23-0.7,38.102,10.304c1.72,1.914,3.195,3.955,4.428,6.098
			c1.378,2.378,3.014,4.65,4.925,6.777c5.448,6.078,12.331,10.086,19.674,11.985c-3.262-1.873-6.287-4.291-8.933-7.246
			c-8.276-9.216-10.984-21.512-8.364-32.739c3.004-12.43,0.031-26.076-9.135-36.283c-0.897-1.01-1.839-1.952-2.813-2.838
			c13.782,1.502,26.071,10.887,30.633,24.969c0.788,2.449,1.311,4.914,1.57,7.377c0.289,2.732,0.865,5.48,1.745,8.203
			c2.517,7.772,7.178,14.248,13.113,18.979c-2.217-3.045-3.998-6.486-5.22-10.266c-3.823-11.801-1.311-24.141,5.635-33.331
			c7.779-10.129,10.595-23.806,6.365-36.884c-0.42-1.276-0.891-2.525-1.414-3.733c11.973,6.996,19.394,20.588,17.851,35.31
			c-0.269,2.561-0.792,5.028-1.559,7.388c-0.839,2.612-1.429,5.36-1.73,8.202c-0.849,8.137,0.783,15.953,4.289,22.697
			c-0.798-3.686-1.026-7.556-0.612-11.513c1.296-12.34,8.593-22.591,18.665-28.151c11.209-6.086,19.324-17.434,20.758-31.104
			c0.141-1.343,0.213-2.673,0.217-3.995c8.105,11.281,9.381,26.729,2,39.559c-1.284,2.226-2.766,4.266-4.412,6.106
			c-1.834,2.049-3.487,4.315-4.915,6.796c-4.072,7.079-5.754,14.891-5.288,22.482c0.771-3.688,2.129-7.321,4.112-10.77
			c6.188-10.742,17.008-17.138,28.458-18.104c12.704-0.982,24.719-8.041,31.571-19.953c0.673-1.163,1.278-2.352,1.821-3.553
			c2.828,13.608-2.268,28.246-14.211,36.953c-2.081,1.51-4.256,2.775-6.514,3.781c-2.496,1.124-4.926,2.526-7.234,4.205
			c-6.588,4.803-11.292,11.26-13.942,18.387c2.196-3.059,4.914-5.824,8.12-8.164c10.001-7.295,22.477-8.723,33.332-4.93
			c12,4.29,25.837,2.743,36.92-5.341c1.088-0.796,2.123-1.626,3.107-2.508c-2.937,13.592-13.527,24.882-27.966,27.964
			c-2.507,0.536-5.003,0.794-7.474,0.799c-2.738,0.005-5.525,0.294-8.313,0.893c-7.97,1.696-14.879,5.676-20.187,11.104
			c3.24-1.897,6.847-3.315,10.72-4.142c12.099-2.584,24.066,1.203,32.441,9.101c9.229,8.812,22.491,13.046,35.889,10.187
			c1.315-0.281,2.602-0.627,3.859-1.025c-8.193,11.222-22.445,17.213-36.879,14.138c-2.508-0.532-4.899-1.315-7.152-2.321
			c-2.507-1.108-5.168-1.981-7.955-2.578c-7.971-1.7-15.889-0.885-22.942,1.91c3.734-0.406,7.599-0.24,11.476,0.59
			c12.089,2.576,21.488,10.925,25.941,21.554c4.854,11.824,15.248,21.099,28.655,23.959c1.311,0.277,2.626,0.49,3.931,0.63
			c-12.031,6.914-27.479,6.577-39.416-2.128c-2.072-1.512-3.937-3.208-5.594-5.04c-1.834-2.035-3.91-3.925-6.214-5.602
			c-6.594-4.808-14.155-7.293-21.732-7.612c3.579,1.147,7.034,2.878,10.24,5.213c10.005,7.291,15.204,18.757,14.962,30.286
			c-0.357,12.782,5.375,25.506,16.459,33.58c1.087,0.792,2.199,1.521,3.334,2.189c-13.785,1.399-27.764-5.211-35.133-18.032
			c-1.285-2.228-2.3-4.531-3.071-6.894c-0.85-2.603-1.979-5.183-3.403-7.648c-4.075-7.084-9.97-12.448-16.76-15.83
			c2.803,2.511,5.258,5.505,7.236,8.942c6.184,10.751,6.281,23.346,1.389,33.777c-5.512,11.537-5.428,25.5,1.417,37.399
			c0.675,1.173,1.395,2.294,2.161,3.365c-13.161-4.343-23.245-16.09-24.781-30.812c-0.27-2.571-0.264-5.086-0.01-7.551
			c0.279-2.734,0.289-5.542-0.006-8.386c-0.85-8.137-4.072-15.437-8.893-21.311c1.543,3.449,2.564,7.188,2.979,11.134
			c1.295,12.341-3.719,23.896-12.42,31.437c-9.704,8.285-15.293,21.076-13.864,34.751c0.141,1.336,0.349,2.66,0.612,3.944
			c-10.26-9.332-14.714-24.179-10.146-38.26c0.793-2.457,1.818-4.755,3.051-6.904c1.361-2.389,2.511-4.944,3.392-7.67
			c2.521-7.769,2.543-15.753,0.519-23.082c0.01,3.767-0.565,7.599-1.792,11.379c-3.822,11.802-13.082,20.312-24.088,23.646
			c-12.222,3.615-22.507,13.021-26.748,26.101c-0.409,1.285-0.761,2.565-1.042,3.86c-5.587-12.726-3.635-28.103,6.246-39.112
			c1.72-1.91,3.585-3.598,5.583-5.058c2.212-1.617,4.304-3.491,6.204-5.616C174.318,280.018,177.574,272.725,178.693,265.199"/>
		<path clip-path="url(#SVGID_12_)" fill="none" stroke="#000000" stroke-width="0.25" stroke-miterlimit="3.864" d="
			M169.817,261.167c-1.341,2.438-2.989,4.764-4.94,6.929c-8.324,9.211-20.281,13.221-31.711,11.807
			c-1.026-0.129-2.139-0.444-3.17-0.496c-0.544-0.031,0.989-0.479,1.492-0.704c2.356-1.058,4.759-1.833,7.183-2.361
			c2.688-0.577,5.36-1.442,7.975-2.612c4.122-1.833,7.774-4.297,10.933-7.176L169.817,261.167z M151.452,242.988
			c-2.227,1.688-4.676,3.138-7.339,4.318c-11.357,5.039-23.915,3.854-33.787-2.081c-0.88-0.528-1.777-1.273-2.687-1.74
			c-0.488-0.249,1.097-0.042,1.652-0.042c2.574,0,5.091,0.26,7.52,0.763c2.688,0.563,5.489,0.858,8.354,0.854
			c4.515-0.005,8.855-0.776,12.91-2.123L151.452,242.988z M142.074,218.917c-2.714,0.643-5.542,0.974-8.457,0.974
			c-12.43-0.011-23.414-6.193-30.018-15.615c-0.585-0.846-1.103-1.889-1.745-2.684c-0.347-0.424,1.015,0.406,1.522,0.628
			c2.357,1.048,4.542,2.302,6.557,3.756c2.232,1.604,4.665,3.005,7.287,4.168c4.122,1.831,8.405,2.892,12.662,3.306L142.074,218.917
			z M143.321,193.127c-2.744-0.516-5.463-1.357-8.126-2.541c-11.352-5.059-18.866-15.165-21.057-26.458
			c-0.187-1.013-0.232-2.168-0.503-3.158c-0.139-0.531,0.767,0.79,1.141,1.198c1.719,1.908,3.205,3.945,4.458,6.088
			c1.383,2.37,3.03,4.64,4.951,6.765c3.03,3.347,6.505,6.054,10.224,8.156L143.321,193.127z M154.964,170.074
			c-2.29-1.586-4.434-3.463-6.375-5.623c-8.318-9.225-11.067-21.512-8.468-32.717c0.243-0.998,0.674-2.08,0.833-3.094
			c0.088-0.542,0.379,1.031,0.545,1.553c0.802,2.453,1.326,4.918,1.599,7.379c0.296,2.726,0.881,5.474,1.772,8.191
			c1.398,4.287,3.47,8.168,6.012,11.604L154.964,170.074z M175.001,153.74c-1.445-2.377-2.642-4.961-3.543-7.728
			c-3.827-11.803-1.336-24.144,5.604-33.323c0.627-0.816,1.461-1.628,2.025-2.488c0.295-0.455-0.078,1.093-0.134,1.645
			c-0.27,2.561-0.793,5.023-1.549,7.382c-0.839,2.616-1.424,5.356-1.725,8.203c-0.465,4.489-0.155,8.874,0.772,13.046
			L175.001,153.74z M199.958,146.953c-0.352-2.762-0.393-5.606-0.083-8.496c1.311-12.34,8.617-22.6,18.694-28.17
			c0.908-0.486,1.994-0.892,2.86-1.447c0.461-0.297-0.513,0.966-0.787,1.441c-1.29,2.232-2.771,4.275-4.423,6.119
			c-1.834,2.049-3.491,4.319-4.921,6.795c-2.252,3.907-3.754,8.039-4.613,12.229L199.958,146.953z M225.524,150.889
			c0.804-2.67,1.929-5.283,3.384-7.796c6.225-10.744,17.08-17.149,28.561-18.142c1.026-0.086,2.186-0.004,3.207-0.17
			c0.539-0.078-0.865,0.672-1.316,1c-2.086,1.519-4.268,2.773-6.535,3.795c-2.502,1.129-4.941,2.521-7.257,4.209
			c-3.65,2.658-6.707,5.822-9.196,9.303L225.524,150.889z M247.276,164.855c1.818-2.109,3.916-4.042,6.272-5.746
			c10.062-7.283,22.591-8.73,33.482-4.976c0.969,0.338,1.998,0.88,2.993,1.144c0.528,0.145-1.067,0.268-1.605,0.383
			c-2.522,0.543-5.03,0.802-7.515,0.811c-2.752,0.018-5.548,0.303-8.344,0.902c-4.418,0.945-8.504,2.594-12.197,4.762
			L247.276,164.855z M261.457,186.449c2.522-1.182,5.221-2.099,8.074-2.703c12.16-2.572,24.191,1.199,32.611,9.047
			c0.751,0.709,1.471,1.615,2.269,2.264c0.425,0.346-1.083-0.189-1.626-0.302c-2.518-0.531-4.92-1.31-7.188-2.306
			c-2.522-1.108-5.195-1.979-7.997-2.571c-4.416-0.931-8.818-1.078-13.076-0.601L261.457,186.449z M265.61,211.936
			c2.791-0.056,5.63,0.202,8.478,0.81c12.16,2.59,21.612,10.91,26.113,21.502c0.388,0.952,0.678,2.082,1.145,2.993
			c0.248,0.486-0.912-0.616-1.357-0.942c-2.092-1.502-3.967-3.192-5.635-5.024c-1.85-2.03-3.937-3.916-6.256-5.593
			c-3.656-2.641-7.623-4.567-11.699-5.856L265.61,211.936z M259.018,236.903c2.574,1.083,5.061,2.471,7.416,4.18
			c10.052,7.296,15.298,18.748,15.091,30.25c-0.024,1.019-0.222,2.17-0.171,3.192c0.031,0.545-0.579-0.931-0.854-1.405
			c-1.294-2.229-2.326-4.527-3.099-6.885c-0.858-2.604-2.003-5.175-3.437-7.64c-2.264-3.914-5.102-7.269-8.307-10.108
			L259.018,236.903z M242.828,257.044c1.912,2.02,3.614,4.298,5.07,6.819c6.205,10.746,6.34,23.342,1.461,33.763
			c-0.44,0.926-1.088,1.895-1.461,2.853c-0.197,0.508-0.154-1.088-0.211-1.642c-0.27-2.553-0.27-5.076-0.021-7.539
			c0.273-2.731,0.278-5.538-0.021-8.381c-0.481-4.485-1.704-8.71-3.476-12.606L242.828,257.044z M219.83,268.861
			c0.916,2.62,1.548,5.401,1.848,8.285c1.289,12.349-3.724,23.896-12.424,31.437c-0.776,0.674-1.768,1.295-2.49,2.01
			c-0.389,0.393,0.299-1.047,0.471-1.575c0.797-2.445,1.822-4.748,3.056-6.897c1.361-2.382,2.511-4.945,3.392-7.664
			c1.387-4.293,2-8.649,1.963-12.922L219.83,268.861z M194.003,270.321c-0.234,2.771-0.783,5.563-1.689,8.323
			c-3.849,11.801-13.134,20.321-24.155,23.672c-0.984,0.291-2.138,0.468-3.097,0.829c-0.512,0.196,0.705-0.839,1.072-1.253
			c1.725-1.918,3.6-3.599,5.599-5.064c2.216-1.621,4.314-3.491,6.225-5.626c3.019-3.354,5.35-7.084,7.058-11.005L194.003,270.321z
			 M178.693,265.199c-1.517,3.455-3.604,6.72-6.255,9.676c-8.277,9.223-20.177,13.221-31.582,11.78
			c-12.631-1.686-25.837,2.704-35.009,12.928c-0.901,1.004-1.741,2.035-2.523,3.102c0.057-13.905,8.075-27.164,21.561-33.189
			c2.341-1.043,4.733-1.824,7.151-2.343c2.678-0.58,5.34-1.438,7.945-2.6c7.442-3.33,13.377-8.66,17.454-15.076
			c-2.787,2.533-6.019,4.666-9.638,6.292c-11.296,5.046-23.793,3.839-33.623-2.134c-10.85-6.701-24.704-8.068-37.221-2.474
			c-1.222,0.545-2.413,1.148-3.557,1.803c5.691-12.678,18.385-21.524,33.145-21.524c2.569,0,5.065,0.271,7.477,0.778
			c2.684,0.569,5.47,0.869,8.319,0.869c8.151-0.004,15.728-2.455,22.052-6.66c-3.574,1.181-7.391,1.817-11.353,1.817
			c-12.367,0.005-23.284-6.198-29.846-15.665c-7.194-10.548-19.291-17.458-32.99-17.452c-1.341,0-2.673,0.068-3.982,0.197
			c10.337-9.271,25.515-12.162,38.997-6.144c2.341,1.046,4.516,2.312,6.52,3.765c2.216,1.607,4.636,3.02,7.241,4.185
			c7.442,3.325,15.36,4.18,22.834,2.919c-3.74-0.383-7.479-1.361-11.099-2.975c-11.295-5.045-18.758-15.17-20.913-26.496
			c-2.294-12.574-10.544-23.821-23.057-29.41c-1.227-0.545-2.469-1.031-3.713-1.442c13.196-4.25,28.23-0.7,38.102,10.304
			c1.72,1.914,3.195,3.955,4.428,6.098c1.378,2.378,3.014,4.65,4.925,6.777c5.448,6.078,12.331,10.086,19.674,11.985
			c-3.262-1.873-6.287-4.291-8.933-7.246c-8.276-9.216-10.984-21.512-8.364-32.739c3.004-12.43,0.031-26.076-9.135-36.283
			c-0.897-1.01-1.839-1.952-2.813-2.838c13.782,1.502,26.071,10.887,30.633,24.969c0.788,2.449,1.311,4.914,1.57,7.377
			c0.289,2.732,0.865,5.48,1.745,8.203c2.517,7.772,7.178,14.248,13.113,18.979c-2.217-3.045-3.998-6.486-5.22-10.266
			c-3.823-11.801-1.311-24.141,5.635-33.331c7.779-10.129,10.595-23.806,6.365-36.884c-0.42-1.276-0.891-2.525-1.414-3.733
			c11.973,6.996,19.394,20.588,17.851,35.31c-0.269,2.561-0.792,5.028-1.559,7.388c-0.839,2.612-1.429,5.36-1.73,8.202
			c-0.849,8.137,0.783,15.953,4.289,22.697c-0.798-3.686-1.026-7.556-0.612-11.513c1.296-12.34,8.593-22.591,18.665-28.151
			c11.209-6.086,19.324-17.434,20.758-31.104c0.141-1.343,0.213-2.673,0.217-3.995c8.105,11.281,9.381,26.729,2,39.559
			c-1.284,2.226-2.766,4.266-4.412,6.106c-1.834,2.049-3.487,4.315-4.915,6.796c-4.072,7.079-5.754,14.891-5.288,22.482
			c0.771-3.688,2.129-7.321,4.112-10.77c6.188-10.742,17.008-17.138,28.458-18.104c12.704-0.982,24.719-8.041,31.571-19.953
			c0.673-1.163,1.278-2.352,1.821-3.553c2.828,13.608-2.268,28.246-14.211,36.953c-2.081,1.51-4.256,2.775-6.514,3.781
			c-2.496,1.124-4.926,2.526-7.234,4.205c-6.588,4.803-11.292,11.26-13.942,18.387c2.196-3.059,4.914-5.824,8.12-8.164
			c10.001-7.295,22.477-8.723,33.332-4.93c12,4.29,25.837,2.743,36.92-5.341c1.088-0.796,2.123-1.626,3.107-2.508
			c-2.937,13.592-13.527,24.882-27.966,27.964c-2.507,0.536-5.003,0.794-7.474,0.799c-2.738,0.005-5.525,0.294-8.313,0.893
			c-7.97,1.696-14.879,5.676-20.187,11.104c3.24-1.897,6.847-3.315,10.72-4.142c12.099-2.584,24.066,1.203,32.441,9.101
			c9.229,8.812,22.491,13.046,35.889,10.187c1.315-0.281,2.602-0.627,3.859-1.025c-8.193,11.222-22.445,17.213-36.879,14.138
			c-2.508-0.532-4.899-1.315-7.152-2.321c-2.507-1.108-5.168-1.981-7.955-2.578c-7.971-1.7-15.889-0.885-22.942,1.91
			c3.734-0.406,7.599-0.24,11.476,0.59c12.089,2.576,21.488,10.925,25.941,21.554c4.854,11.824,15.248,21.099,28.655,23.959
			c1.311,0.277,2.626,0.49,3.931,0.63c-12.031,6.914-27.479,6.577-39.416-2.128c-2.072-1.512-3.937-3.208-5.594-5.04
			c-1.834-2.035-3.91-3.925-6.214-5.602c-6.594-4.808-14.155-7.293-21.732-7.612c3.579,1.147,7.034,2.878,10.24,5.213
			c10.005,7.291,15.204,18.757,14.962,30.286c-0.357,12.782,5.375,25.506,16.459,33.58c1.087,0.792,2.199,1.521,3.334,2.189
			c-13.785,1.399-27.764-5.211-35.133-18.032c-1.285-2.228-2.3-4.531-3.071-6.894c-0.85-2.603-1.979-5.183-3.403-7.648
			c-4.075-7.084-9.97-12.448-16.76-15.83c2.803,2.511,5.258,5.505,7.236,8.942c6.184,10.751,6.281,23.346,1.389,33.777
			c-5.512,11.537-5.428,25.5,1.417,37.399c0.675,1.173,1.395,2.294,2.161,3.365c-13.161-4.343-23.245-16.09-24.781-30.812
			c-0.27-2.571-0.264-5.086-0.01-7.551c0.279-2.734,0.289-5.542-0.006-8.386c-0.85-8.137-4.072-15.437-8.893-21.311
			c1.543,3.449,2.564,7.188,2.979,11.134c1.295,12.341-3.719,23.896-12.42,31.437c-9.704,8.285-15.293,21.076-13.864,34.751
			c0.141,1.336,0.349,2.66,0.612,3.944c-10.26-9.332-14.714-24.179-10.146-38.26c0.793-2.457,1.818-4.755,3.051-6.904
			c1.361-2.389,2.511-4.944,3.392-7.67c2.521-7.769,2.543-15.753,0.519-23.082c0.01,3.767-0.565,7.599-1.792,11.379
			c-3.822,11.802-13.082,20.312-24.088,23.646c-12.222,3.615-22.507,13.021-26.748,26.101c-0.409,1.285-0.761,2.565-1.042,3.86
			c-5.587-12.726-3.635-28.103,6.246-39.112c1.72-1.91,3.585-3.598,5.583-5.058c2.212-1.617,4.304-3.491,6.204-5.616
			C174.318,280.018,177.574,272.725,178.693,265.199z"/>
		<polygon clip-path="url(#SVGID_12_)" fill-rule="evenodd" clip-rule="evenodd" fill="#4D4D3C" points="68.25,163.963 
			77.007,163.999 79.897,155.301 82.684,163.973 91.679,163.951 84.418,169.251 87.102,177.844 79.923,172.469 72.492,177.883 
			75.314,169.2 		"/>
		<polygon clip-path="url(#SVGID_12_)" fill="none" stroke="#000000" stroke-width="0.25" stroke-miterlimit="3.864" points="
			68.25,163.963 77.007,163.999 79.897,155.301 82.684,163.973 91.679,163.951 84.418,169.251 87.102,177.844 79.923,172.469 
			72.492,177.883 75.314,169.2 		"/>
		<polygon clip-path="url(#SVGID_12_)" fill-rule="evenodd" clip-rule="evenodd" fill="#4D4D3C" points="197.467,86.322 
			200.201,78.006 192.832,72.568 201.931,72.599 204.691,64.033 207.488,72.578 216.5,72.682 209.162,77.851 212.01,86.588 
			204.63,81.218 		"/>
		<polygon clip-path="url(#SVGID_12_)" fill="none" stroke="#000000" stroke-width="0.25" stroke-miterlimit="3.864" points="
			197.467,86.322 200.201,78.006 192.832,72.568 201.931,72.599 204.691,64.033 207.488,72.578 216.5,72.682 209.162,77.851 
			212.01,86.588 204.63,81.218 		"/>
		<polygon clip-path="url(#SVGID_12_)" fill-rule="evenodd" clip-rule="evenodd" fill="#4D4D3C" points="288.916,324.701 
			281.852,319.525 274.405,324.859 277.242,316.214 269.951,310.934 278.937,310.92 281.826,302.386 284.467,310.956 
			293.665,310.945 286.279,316.311 		"/>
		<polygon clip-path="url(#SVGID_12_)" fill="none" stroke="#000000" stroke-width="0.25" stroke-miterlimit="3.864" points="
			288.916,324.701 281.852,319.525 274.405,324.859 277.242,316.214 269.951,310.934 278.937,310.92 281.826,302.386 
			284.467,310.956 293.665,310.945 286.279,316.311 		"/>
		<polygon clip-path="url(#SVGID_12_)" fill-rule="evenodd" clip-rule="evenodd" fill="#4D4D3C" points="120.301,324.623 
			123.034,316.307 115.666,310.867 124.765,310.898 127.526,302.335 130.322,310.878 139.334,310.982 131.995,316.15 
			134.843,324.888 127.464,319.517 		"/>
		<polygon clip-path="url(#SVGID_12_)" fill="none" stroke="#000000" stroke-width="0.25" stroke-miterlimit="3.864" points="
			120.301,324.623 123.034,316.307 115.666,310.867 124.765,310.898 127.526,302.335 130.322,310.878 139.334,310.982 
			131.995,316.15 134.843,324.888 127.464,319.517 		"/>
		<polygon clip-path="url(#SVGID_12_)" fill-rule="evenodd" clip-rule="evenodd" fill="#4D4D3C" points="341.08,164.094 
			333.975,169.211 336.746,177.939 329.396,172.57 322.125,177.877 324.881,169.32 317.666,163.941 326.631,164.074 
			329.465,155.328 332.281,164.01 		"/>
		<polygon clip-path="url(#SVGID_12_)" fill="none" stroke="#000000" stroke-width="0.25" stroke-miterlimit="3.864" points="
			341.08,164.094 333.975,169.211 336.746,177.939 329.396,172.57 322.125,177.877 324.881,169.32 317.666,163.941 326.631,164.074 
			329.465,155.328 332.281,164.01 		"/>
		<g opacity="0.84" clip-path="url(#SVGID_12_)">
			<g>
				<defs>
					<rect id="SVGID_18_" x="21.199" y="21.861" width="365.491" height="364.208"/>
				</defs>
				<clipPath id="SVGID_19_">
					<use xlink:href="#SVGID_18_"  overflow="visible"/>
				</clipPath>
				<path clip-path="url(#SVGID_19_)" fill-rule="evenodd" clip-rule="evenodd" fill="#4D4D3C" d="M184.017,385.202l-1.935-0.24
					l1.409-11.451l-1.982,0.721l0.239-1.98c0.739-0.176,1.42-0.52,2.041-1.02l1.919,0.234L184.017,385.202z M244.394,377.634
					l-11.504,1.82l-0.322-2.055l11.504-1.826L244.394,377.634z M174.097,379.509l-11.429-2.219l0.395-2.051l11.43,2.223
					L174.097,379.509z M249.868,360.843l16.697-5.756l6.459,18.768l-16.082,5.533l-0.974-2.826l13.438-4.621l-1.654-4.799
					l-9.338,3.215l-0.974-2.82l9.343-3.223l-1.895-5.496l-14.053,4.848L249.868,360.843z M266.575,355.046l14.226-6.938
					l8.698,17.835l-2.516,1.23l-7.385-15.156l-11.711,5.715L266.575,355.046z M291.081,350.761l8.723,5.865l-1.426-10.418
					L291.081,350.761z M281.732,347.843l2.593-1.615l4.012,2.733l9.619-6.021l-0.692-4.8l2.59-1.614l2.948,21.56l-2.982,1.863
					L281.732,347.843z M300.063,336.13l2.682-2.164l20.273,4.528l-10.243-12.658l2.17-1.761l12.491,15.428l-2.695,2.188
					l-20.263-4.549l10.248,12.656l-2.176,1.76L300.063,336.13z M325.016,327.804c1.702,1.582,3.649,2.247,5.845,2.008
					c1.896-0.208,3.577-1.102,5.033-2.664c1.6-1.717,2.385-3.602,2.348-5.652c-0.021-2.035-0.828-3.799-2.415-5.277
					c-1.649-1.541-3.473-2.249-5.47-2.135c-1.99,0.115-3.805,1.063-5.445,2.821c-1.634,1.75-2.425,3.612-2.384,5.61
					C322.554,324.513,323.388,326.284,325.016,327.804 M323.027,329.927c-2.378-2.217-3.528-4.84-3.45-7.869
					c0.072-2.653,1.119-5.055,3.133-7.214c2.03-2.177,4.373-3.395,7.021-3.644c3.019-0.281,5.709,0.677,8.078,2.883
					c2.322,2.166,3.451,4.79,3.383,7.869c-0.068,2.697-1.1,5.111-3.092,7.252c-2.004,2.15-4.331,3.336-7.006,3.57
					C328.046,333.044,325.359,332.103,323.027,329.927 M331.787,305.252l1.682-2.233l15.849,11.939l-1.682,2.238L331.787,305.252z
					 M342.915,294.731c-0.89,1.433-1.082,2.932-0.582,4.51c0.504,1.598,1.607,2.923,3.299,3.98c1.796,1.123,3.556,1.535,5.273,1.232
					c1.706-0.286,3.055-1.228,4.054-2.82l4.294-6.881l-11.764-7.348L342.915,294.731z M357.618,303.019
					c-1.556,2.486-3.57,3.971-6.037,4.445c-2.467,0.488-5.007-0.084-7.63-1.718c-2.394-1.5-3.914-3.519-4.549-6.058
					c-0.593-2.363-0.224-4.613,1.103-6.736l5.939-9.499l16.827,10.515L357.618,303.019z M348.036,280.253l1.225-2.514l17.842,8.697
					l-1.229,2.52L348.036,280.253z M363.287,272.659c-0.809,2.004-0.271,3.389,1.612,4.148c2.016,0.811,3.457,0.135,4.332-2.02
					l3.684-9.119l-5.845-2.362L363.287,272.659z M351.165,274.496l1.213-3.003l8.729-1.4l3.189-7.904l-7.016-2.827l1.051-2.602
					l18.4,7.437l-4.98,12.329c-0.662,1.65-1.714,2.723-3.145,3.238c-1.411,0.521-3.003,0.416-4.783-0.302
					c-1.557-0.63-2.655-1.52-3.301-2.665c-0.592-1.061-0.76-2.259-0.494-3.591L351.165,274.496z M358.732,255.354l4.569-17.053
					l19.17,5.134l-4.402,16.426l-2.89-0.771l3.685-13.729l-4.896-1.313l-2.562,9.546l-2.884-0.777l2.556-9.545l-5.616-1.503
					l-3.846,14.354L358.732,255.354z M363.765,236.236l0.339-2.774l16.11,1.979l-11.764-10.342l13.896-7.053l-16.099-2.045
					l0.339-2.774l19.699,2.424l-0.422,3.442l-12.906,6.583l10.924,9.536l-0.42,3.445L363.765,236.236z M376.706,201.238
					c2.313-0.16,4.137-1.131,5.453-2.905c1.145-1.525,1.641-3.357,1.488-5.496c-0.166-2.345-1.004-4.197-2.529-5.569
					c-1.51-1.373-3.346-1.988-5.518-1.832c-2.238,0.153-4.007,1.002-5.293,2.543c-1.264,1.533-1.811,3.506-1.645,5.904
					c0.166,2.387,0.994,4.243,2.479,5.575C372.63,200.801,374.482,201.395,376.706,201.238 M376.909,204.142
					c-3.244,0.229-5.951-0.719-8.111-2.839c-1.889-1.861-2.936-4.266-3.143-7.207c-0.209-2.979,0.5-5.516,2.135-7.627
					c1.842-2.396,4.381-3.713,7.609-3.938c3.168-0.224,5.855,0.74,8.057,2.895c1.93,1.887,2.998,4.283,3.201,7.2
					c0.203,2.931-0.521,5.446-2.166,7.558C382.606,202.601,380.077,203.923,376.909,204.142 M364.688,180.201l-0.437-2.76
					l19.594-3.102l0.438,2.756L364.688,180.201z M364.843,149.273l7.422-7.439l-10.498-0.585L364.843,149.273z M341.03,116.806
					l-9.295-12.804l16.057-11.66l1.646,2.264l-13.643,9.905l7.657,10.536L341.03,116.806z M330.86,102.508l-11.814-13.123
					l14.75-13.281l11.379,12.642l-2.219,1.999l-9.508-10.559l-3.773,3.389l6.615,7.339l-2.223,1.999l-6.61-7.34l-4.314,3.895
					l9.94,11.041L330.86,102.508z M313.606,80.506c1.286,1.081,2.744,1.482,4.372,1.205c1.661-0.283,3.124-1.184,4.403-2.708
					c1.363-1.624,2.015-3.308,1.957-5.052c-0.041-1.732-0.786-3.204-2.228-4.414l-6.21-5.206l-8.915,10.623L313.606,80.506z
					 M359.825,156.916l-0.719-1.87l3.44-3.417l-4.065-10.594l-4.844-0.234l-1.094-2.848l-6.953-13.319l17.523-9.315l1.313,2.471
					l-14.881,7.912l6.111,11.5l-1.573,0.839l20.185,1.129l1.26,3.289l-13.912,14.016l0.979-0.243l16.826,10.161l-3.314-13.313
					l2.893-0.723l4.238,16.976l-2.9,0.722l-16.832-10.161l3.523,14.128l-2.898,0.727l-4.434-17.799L359.825,156.916z
					 M323.854,67.102c2.25,1.887,3.431,4.088,3.558,6.6c0.151,2.509-0.777,4.945-2.76,7.311c-1.821,2.169-4.034,3.391-6.632,3.661
					c-2.425,0.257-4.596-0.421-6.516-2.024l-8.577-7.205l12.752-15.201L323.854,67.102z M295.431,69.975l-15.135-9.098
					l10.223-17.007l14.573,8.758l-1.54,2.562l-12.175-7.322l-2.612,4.35l8.467,5.085l-1.54,2.562l-8.468-5.09l-2.992,4.984
					l12.74,7.659L295.431,69.975z M273.036,46.343c0.836-2.163,0.723-4.222-0.324-6.171c-0.899-1.682-2.358-2.9-4.355-3.668
					c-2.191-0.842-4.227-0.862-6.121-0.059c-1.879,0.783-3.206,2.191-3.986,4.223c-0.808,2.094-0.781,4.054,0.067,5.867
					c0.858,1.797,2.409,3.128,4.657,3.992c2.234,0.851,4.264,0.891,6.096,0.106C270.917,49.857,272.239,48.428,273.036,46.343
					 M275.759,47.387c-1.168,3.038-3.166,5.085-6.008,6.151c-2.482,0.921-5.106,0.86-7.859-0.197
					c-2.785-1.073-4.789-2.788-6.006-5.153c-1.396-2.69-1.515-5.543-0.359-8.564c1.141-2.969,3.148-4.993,6.032-6.081
					c2.524-0.95,5.157-0.9,7.879,0.144c2.739,1.055,4.717,2.771,5.935,5.16C276.768,41.572,276.892,44.42,275.759,47.387
					 M250.03,48.57l-3.347-0.83l-8.583-18.922l-3.939,15.799l-2.713-0.676l4.8-19.259l3.372,0.845l8.563,18.912l3.939-15.801
					l2.707,0.682L250.03,48.57z M228.013,43.79l-2.769-0.388l2.759-19.65l2.773,0.387L228.013,43.79z M219.837,27.566
					c-2.385-1.666-4.877-2.596-7.464-2.777c-1.723-0.116-3.056,0.027-4.003,0.438c-0.947,0.411-1.453,1.034-1.509,1.871
					c-0.058,0.881,0.386,1.547,1.333,2.02c0.676,0.336,1.801,0.619,3.373,0.838c2.314,0.347,3.84,0.597,4.574,0.761
					c2.082,0.476,3.597,1.192,4.539,2.16c0.946,0.963,1.357,2.264,1.248,3.905c-0.15,2.095-1.051,3.662-2.711,4.701
					s-3.971,1.449-6.928,1.248c-4.299-0.3-7.558-1.646-9.79-4.041l1.702-2.27c2.498,2.076,5.271,3.23,8.307,3.438
					c1.967,0.139,3.518-0.076,4.643-0.636c1.082-0.548,1.665-1.356,1.738-2.435c0.088-1.258-0.536-2.141-1.87-2.66
					c-0.696-0.266-2.601-0.626-5.713-1.087c-2.759-0.409-4.675-0.986-5.747-1.72c-1.243-0.854-1.806-2.188-1.676-3.987
					c0.125-1.861,0.964-3.28,2.514-4.248c1.563-0.976,3.691-1.366,6.387-1.179c3.627,0.256,6.594,1.443,8.906,3.565L219.837,27.566z
					 M199.996,26.586c-2.602-1.318-5.194-1.887-7.782-1.706c-1.722,0.123-3.023,0.449-3.897,0.987
					c-0.885,0.539-1.297,1.226-1.239,2.061c0.062,0.88,0.598,1.484,1.598,1.813c0.717,0.246,1.872,0.369,3.46,0.365
					c2.332,0.019,3.878,0.055,4.633,0.114c2.129,0.183,3.727,0.685,4.799,1.511c1.072,0.82,1.665,2.051,1.774,3.693
					c0.152,2.094-0.525,3.773-2.029,5.03c-1.499,1.256-3.732,1.991-6.688,2.2c-4.289,0.301-7.709-0.58-10.249-2.639l1.369-2.482
					c2.764,1.711,5.663,2.463,8.703,2.248c1.967-0.137,3.471-0.564,4.507-1.28c1-0.69,1.457-1.571,1.385-2.646
					c-0.089-1.26-0.828-2.054-2.223-2.38c-0.729-0.161-2.665-0.259-5.809-0.274c-2.789-0.029-4.767-0.325-5.928-0.905
					c-1.353-0.675-2.097-1.916-2.223-3.722c-0.13-1.856,0.506-3.373,1.901-4.558c1.415-1.177,3.466-1.86,6.162-2.05
					c3.622-0.253,6.729,0.51,9.317,2.29L199.996,26.586z M177.979,36.579l-5.735-8.804l-2.754,10.146L177.979,36.579z
					 M185.449,42.915l-3.014,0.483l-2.628-4.084L168.6,41.089l-1.238,4.692l-3.014,0.475l5.71-20.993l3.472-0.553L185.449,42.915z
					 M161.646,31.255l-2.112,1.763c-2.259-1.544-4.861-1.863-7.803-0.969c-2.227,0.682-3.836,1.914-4.84,3.689
					c-0.983,1.774-1.161,3.697-0.52,5.775c0.656,2.154,1.873,3.68,3.664,4.585c1.796,0.884,3.877,0.966,6.235,0.244
					c2.853-0.876,4.778-2.594,5.773-5.183l2.758,0.797c-0.672,1.943-1.639,3.501-2.888,4.669c-1.245,1.14-2.879,2.026-4.914,2.651
					c-2.852,0.865-5.48,0.752-7.88-0.351c-2.738-1.262-4.591-3.448-5.538-6.562c-0.933-3.058-0.609-5.887,0.983-8.493
					c1.386-2.277,3.478-3.843,6.288-4.707C154.891,27.933,158.487,28.63,161.646,31.255 M136.841,56.375l-2.54,1.175l-8.385-17.981
					l2.534-1.182L136.841,56.375z M122.658,60.018c1.436-0.863,2.291-2.111,2.556-3.738c0.281-1.657-0.1-3.346-1.125-5.049
					c-1.093-1.816-2.472-2.98-4.138-3.49c-1.655-0.522-3.285-0.301-4.898,0.67l-6.953,4.173l7.151,11.891L122.658,60.018z
					 M113.314,45.971c2.515-1.514,4.982-1.921,7.397-1.216c2.42,0.678,4.424,2.34,6.017,4.989c1.458,2.426,1.895,4.912,1.307,7.462
					c-0.547,2.375-1.896,4.21-4.04,5.497l-9.603,5.767l-10.223-17.006L113.314,45.971z M104.055,76.225l-2.233,1.684L89.878,62.061
					l2.232-1.683L104.055,76.225z M91.21,83.122c1.227-1.14,1.8-2.539,1.723-4.192c-0.074-1.679-0.797-3.244-2.155-4.701
					c-1.442-1.553-3.034-2.404-4.773-2.56c-1.723-0.164-3.274,0.396-4.649,1.679l-5.932,5.527l9.462,10.145L91.21,83.122z
					 M79.15,71.318c2.149-2,4.471-2.91,6.98-2.723c2.509,0.159,4.815,1.369,6.922,3.626c1.931,2.07,2.878,4.416,2.827,7.033
					c-0.042,2.437-0.974,4.506-2.801,6.214l-8.197,7.641L71.348,78.598L79.15,71.318z M78.624,90.631
					c1.603,1.303,2.363,3.018,2.285,5.148c-0.056,2.196-1.004,4.418-2.831,6.674c-1.827,2.261-3.815,3.656-5.97,4.189
					c-2.082,0.512-3.914,0.127-5.512-1.162l-10.435-8.451l1.759-2.172l9.821,7.953c1.207,0.975,2.493,1.273,3.857,0.901
					c1.369-0.392,2.748-1.44,4.138-3.157c1.389-1.709,2.118-3.265,2.196-4.668c0.084-1.412-0.485-2.605-1.686-3.581l-9.821-7.95
					l1.759-2.17L78.624,90.631z M57.148,100.55l-4.267,6.839l14.293,8.932l-1.484,2.373l-14.292-8.934l-4.273,6.839l-2.535-1.588
					l10.024-16.044L57.148,100.55z M47.109,119.908c-2.441,1.594-4.231,3.556-5.367,5.885c-0.759,1.551-1.128,2.839-1.097,3.875
					c0.026,1.027,0.411,1.727,1.171,2.092c0.786,0.391,1.577,0.229,2.368-0.475c0.567-0.498,1.25-1.438,2.04-2.813
					c1.187-2.014,1.994-3.331,2.42-3.955c1.219-1.753,2.457-2.889,3.701-3.408c1.25-0.508,2.607-0.406,4.092,0.312
					c1.883,0.923,2.997,2.345,3.34,4.276c0.339,1.928-0.14,4.23-1.441,6.896c-1.884,3.864-4.352,6.383-7.406,7.558l-1.473-2.426
					c2.867-1.541,4.97-3.683,6.303-6.418c0.864-1.775,1.249-3.285,1.15-4.546c-0.104-1.21-0.64-2.046-1.609-2.521
					c-1.134-0.547-2.186-0.309-3.164,0.735c-0.51,0.55-1.561,2.181-3.149,4.898c-1.416,2.397-2.664,3.961-3.748,4.675
					c-1.259,0.836-2.705,0.857-4.33,0.068c-1.676-0.819-2.675-2.125-2.997-3.926c-0.313-1.813,0.119-3.936,1.306-6.358
					c1.592-3.269,3.804-5.577,6.641-6.925L47.109,119.908z M50.04,151.256l-0.911,2.645l-18.769-6.457l0.91-2.646L50.04,151.256z
					 M48.442,155.345l-3.831,15.349l-19.253-4.802l0.677-2.713l16.353,4.077l3.154-12.637L48.442,155.345z M33.774,171.908
					c3.202,0.449,5.653,1.791,7.355,4.02c1.697,2.217,2.316,4.93,1.868,8.145c-0.411,2.939-1.634,5.271-3.664,6.99
					c-2.305,1.951-5.059,2.704-8.265,2.252c-3.149-0.442-5.58-1.937-7.282-4.486c-1.499-2.232-2.029-4.87-1.608-7.918
					c0.526-3.672,2.53-6.465,6.027-8.37l1.155,2.796c-2.43,1.428-3.846,3.505-4.22,6.227c-0.303,2.125,0.063,3.984,1.098,5.588
					c1.192,1.86,2.941,2.959,5.237,3.279c2.206,0.311,4.1-0.156,5.677-1.392c1.577-1.237,2.53-3.032,2.858-5.382
					c0.521-3.694-0.832-6.332-4.066-7.916l-1.087,7.774l-2.962-0.414l1.578-11.235L33.774,171.908z M41.353,194.087l-0.312,17.651
					l-19.842-0.345l0.298-17.006l2.986,0.056l-0.244,14.207l5.07,0.086l0.171-9.875l2.988,0.052l-0.172,9.877l5.809,0.101
					l0.259-14.859L41.353,194.087z M38.875,221.919c-0.203-1.666-1-2.945-2.378-3.862c-1.4-0.922-3.092-1.26-5.07-1.021
					c-2.103,0.262-3.732,1.052-4.877,2.363c-1.145,1.296-1.603,2.883-1.374,4.746l0.984,8.047l13.767-1.697L38.875,221.919z
					 M22.236,224.739c-0.36-2.914,0.275-5.33,1.899-7.257c1.598-1.929,3.941-3.085,7.006-3.46c2.805-0.348,5.257,0.267,7.349,1.848
					c1.947,1.464,3.076,3.436,3.378,5.918l1.363,11.123l-19.689,2.42L22.236,224.739z M26.696,255.427l0.417,1.363l-3.509,4.09
					l-0.791-2.58L26.696,255.427z M39.213,248.655l-7.916,6.906l10.426,1.317L39.213,248.655z M44.449,240.379l0.896,2.921
					l-3.679,3.176l3.319,10.843l4.82,0.575l0.89,2.92l-21.584-2.732l-1.031-3.363L44.449,240.379z M34.431,265.935l3.273,7.365
					l15.401-6.86l1.14,2.551l-15.407,6.86l3.285,7.369l-2.732,1.208l-7.699-17.28L34.431,265.935z M58.684,278.399l1.312,2.469
					l-17.524,9.316l-1.312-2.469L58.684,278.399z M50.248,294.618c0.052,2.915,0.771,5.477,2.148,7.672
					c0.912,1.462,1.813,2.457,2.702,2.977c0.885,0.531,1.682,0.572,2.395,0.127c0.75-0.47,1.03-1.226,0.854-2.262
					c-0.12-0.754-0.558-1.826-1.307-3.225c-1.077-2.072-1.77-3.458-2.071-4.148c-0.844-1.963-1.146-3.612-0.922-4.94
					c0.224-1.332,1.036-2.437,2.426-3.304c1.785-1.115,3.58-1.309,5.397-0.568c1.817,0.729,3.514,2.354,5.08,4.871
					c2.28,3.648,3.112,7.078,2.488,10.285l-2.831-0.041c0.202-3.244-0.495-6.157-2.108-8.734c-1.046-1.677-2.129-2.811-3.248-3.389
					c-1.073-0.557-2.072-0.547-2.983,0.027c-1.072,0.666-1.421,1.685-1.057,3.076c0.194,0.717,1.021,2.471,2.483,5.262
					c1.286,2.471,1.947,4.361,1.984,5.652c0.036,1.514-0.709,2.758-2.244,3.711c-1.577,0.992-3.217,1.139-4.914,0.463
					c-1.707-0.693-3.274-2.188-4.704-4.476c-1.926-3.088-2.712-6.185-2.353-9.302L50.248,294.618z M67.486,311.675
					c-1.358-1.671-2.821-1.879-4.398-0.606c-1.692,1.37-1.801,2.964-0.339,4.774l6.189,7.64l4.898-3.964L67.486,311.675z
					 M71.759,300.183l2.04,2.514l-3.008,8.313l5.371,6.625l5.877-4.758l1.759,2.17l-15.422,12.487l-8.374-10.337
					c-1.114-1.375-1.546-2.811-1.301-4.311c0.229-1.488,1.092-2.83,2.575-4.037c1.312-1.063,2.619-1.593,3.935-1.6
					c1.219,0,2.348,0.434,3.384,1.313L71.759,300.183z M84.823,316.03l12.705,12.271l-13.787,14.277L71.51,330.765l2.071-2.148
					l10.222,9.866l3.524-3.647l-7.105-6.854l2.072-2.155l7.11,6.87l4.033-4.186l-10.69-10.33L84.823,316.03z M85.526,344.241
					l19.196-10.39l2.571,1.937l-4.685,21.318l-2.498-1.874l3.92-17.779l-16.011,8.66L85.526,344.241z M116.005,341.668l2.374,1.479
					l-10.519,16.831l-2.368-1.477L116.005,341.668z M120.966,345.427l3.102,1.509l4.461,20.294l7.135-14.635l2.52,1.223
					l-8.697,17.842l-3.123-1.525l-4.44-20.277l-7.141,14.631l-2.514-1.229L120.966,345.427z M138.527,361.202
					c0.672-1.951,2.03-3.252,4.059-3.908c2.082-0.697,4.493-0.572,7.241,0.373c2.747,0.949,4.741,2.342,5.974,4.182
					c1.198,1.779,1.463,3.638,0.797,5.572l-4.378,12.701l-2.643-0.912l4.117-11.949c0.505-1.463,0.349-2.773-0.469-3.93
					c-0.832-1.154-2.294-2.092-4.382-2.811c-2.087-0.719-3.795-0.873-5.137-0.469c-1.353,0.406-2.285,1.344-2.79,2.811
					l-4.112,11.949l-2.643-0.909L138.527,361.202z M220.853,375.521c-0.917-1.438-2.426-2.066-4.52-1.881
					c-1.076,0.09-1.91,0.393-2.492,0.886c-0.578,0.489-0.838,1.087-0.775,1.798c0.063,0.748,0.422,1.32,1.067,1.727
					c0.64,0.396,1.498,0.541,2.56,0.449C218.593,378.331,219.983,377.341,220.853,375.521 M221.476,377.618
					c-1.057,1.732-2.617,2.686-4.684,2.866c-1.635,0.147-2.962-0.134-3.986-0.821c-1.021-0.691-1.582-1.688-1.697-2.979
					c-0.12-1.393,0.275-2.549,1.197-3.465c0.932-0.922,2.27-1.457,4.018-1.613c2.035-0.178,3.722,0.334,5.055,1.529
					c1.331,1.203,2.098,2.885,2.289,5.058c0.178,2.073-0.322,3.832-1.498,5.289c-1.104,1.375-2.566,2.146-4.383,2.302
					c-2.149,0.188-3.977-0.438-5.46-1.879l1.182-1.598c0.932,1.082,2.253,1.545,3.971,1.395c0.688-0.057,1.333-0.254,1.921-0.582
					c0.766-0.447,1.354-1.095,1.754-1.941c0.412-0.871,0.572-1.807,0.489-2.807L221.476,377.618z M210.864,374.146l-7.453,11.877
					l-2.249,0.046l7.448-11.882l-9.53,0.164l-0.036-2.09l11.789-0.197L210.864,374.146z M196.202,376.146
					c-0.734-1.541-2.161-2.354-4.253-2.426c-1.082-0.035-1.947,0.156-2.592,0.582c-0.634,0.406-0.957,0.969-0.984,1.688
					c-0.025,0.75,0.256,1.363,0.849,1.844c0.583,0.467,1.421,0.717,2.489,0.754C193.615,378.655,195.114,377.843,196.202,376.146
					 M196.566,378.3c-1.26,1.588-2.925,2.342-5.007,2.273c-1.63-0.057-2.915-0.494-3.852-1.305
					c-0.926-0.813-1.363-1.863-1.321-3.161c0.046-1.399,0.587-2.498,1.609-3.282c1.04-0.813,2.434-1.182,4.184-1.121
					c2.045,0.068,3.654,0.775,4.835,2.135c1.175,1.359,1.722,3.123,1.65,5.293c-0.074,2.084-0.781,3.769-2.123,5.07
					c-1.271,1.232-2.812,1.811-4.633,1.758c-2.16-0.082-3.893-0.926-5.195-2.539l1.374-1.437c0.787,1.181,2.045,1.812,3.769,1.868
					c0.691,0.021,1.352-0.098,1.973-0.348c0.817-0.344,1.471-0.918,1.978-1.719c0.52-0.807,0.796-1.711,0.826-2.715L196.566,378.3z"
					/>
			</g>
		</g>
	</g>
	<g clip-path="url(#SVGID_2_)">
		<defs>
			<path id="SVGID_20_" d="M164.998,301.296c1.725-1.918,3.6-3.6,5.599-5.065c2.216-1.621,4.314-3.491,6.225-5.626
				c3.019-3.354,5.35-7.083,7.058-11.004l8.987-9.876c-0.234,2.771-0.783,5.562-1.69,8.323
				c-3.848,11.802-13.133,20.32-24.154,23.673c-0.984,0.29-2.138,0.467-3.097,0.827c-0.043,0.018-0.074,0.025-0.094,0.025
				C163.614,302.573,164.662,301.674,164.998,301.296 M206.099,308.421c0.797-2.444,1.822-4.749,3.056-6.898
				c1.363-2.381,2.511-4.945,3.392-7.664c1.388-4.293,2-8.648,1.964-12.922l4.185-12.671c0.916,2.62,1.548,5.4,1.848,8.283
				c1.288,12.349-3.724,23.896-12.424,31.437c-0.776,0.674-1.767,1.295-2.49,2.01c-0.046,0.046-0.076,0.067-0.095,0.067
				C205.395,310.063,205.947,308.887,206.099,308.421 M132.029,279.306c-1.026-0.129-2.138-0.445-3.169-0.496
				c-0.544-0.032,0.99-0.479,1.492-0.705c2.356-1.057,4.759-1.833,7.183-2.361c2.688-0.576,5.36-1.441,7.975-2.61
				c4.122-1.834,7.774-4.299,10.933-7.178l12.237-5.386c-1.34,2.44-2.988,4.764-4.939,6.93
				c-7.235,8.006-17.217,12.083-27.211,12.083C135.027,279.582,133.524,279.49,132.029,279.306 M246.553,298.239
				c-0.271-2.553-0.271-5.075-0.022-7.539c0.275-2.73,0.279-5.537-0.021-8.381c-0.481-4.485-1.703-8.71-3.476-12.605l-1.341-13.268
				c1.911,2.021,3.615,4.297,5.069,6.82c6.206,10.746,6.341,23.341,1.462,33.762c-0.441,0.926-1.088,1.895-1.462,2.854
				c-0.026,0.067-0.049,0.098-0.067,0.098C246.575,299.98,246.602,298.72,246.553,298.239 M124.028,244.462
				c4.517-0.004,8.856-0.776,12.911-2.123l13.377,0.054c-2.227,1.688-4.677,3.136-7.339,4.317
				c-11.356,5.039-23.915,3.854-33.787-2.081c-0.879-0.527-1.777-1.274-2.686-1.74c-0.488-0.249,1.097-0.042,1.651-0.042
				c2.574,0,5.09,0.259,7.519,0.762c2.665,0.56,5.44,0.854,8.277,0.854C123.978,244.462,124.002,244.462,124.028,244.462
				 M279.364,272.522c-1.294-2.229-2.326-4.527-3.098-6.884c-0.859-2.605-2.003-5.176-3.438-7.641
				c-2.264-3.914-5.101-7.269-8.307-10.107l-6.641-11.583c2.574,1.082,5.061,2.469,7.416,4.178
				c10.054,7.296,15.3,18.748,15.093,30.25c-0.026,1.02-0.224,2.17-0.172,3.193c0.005,0.083-0.007,0.118-0.027,0.118
				C280.071,274.047,279.598,272.926,279.364,272.522 M298.853,235.7c-2.091-1.502-3.967-3.19-5.635-5.023
				c-1.85-2.031-3.937-3.916-6.256-5.593c-3.655-2.642-7.623-4.567-11.698-5.857l-10.788-7.888c2.791-0.057,5.63,0.201,8.477,0.809
				c12.16,2.59,21.612,10.912,26.113,21.502c0.388,0.953,0.678,2.082,1.145,2.994c0.043,0.086,0.043,0.122,0.012,0.122
				C300.072,236.766,299.221,235.969,298.853,235.7 M102.463,203.678c-0.585-0.846-1.103-1.887-1.746-2.684
				c-0.346-0.424,1.016,0.406,1.523,0.628c2.357,1.05,4.542,2.304,6.557,3.756c2.232,1.604,4.665,3.005,7.287,4.169
				c4.122,1.83,8.405,2.891,12.662,3.307l12.192,5.466c-2.714,0.644-5.542,0.975-8.457,0.975
				C120.05,219.282,109.067,213.101,102.463,203.678 M260.321,185.853c2.522-1.183,5.221-2.099,8.075-2.703
				c12.159-2.573,24.19,1.198,32.61,9.046c0.751,0.709,1.472,1.616,2.269,2.264c0.425,0.346-1.083-0.188-1.625-0.301
				c-2.52-0.531-4.921-1.311-7.19-2.306c-2.521-1.109-5.192-1.979-7.996-2.572c-4.416-0.931-8.818-1.078-13.075-0.601
				L260.321,185.853z M134.061,189.988c-11.353-5.059-18.867-15.165-21.058-26.457c-0.187-1.014-0.232-2.168-0.503-3.159
				c-0.139-0.53,0.767,0.791,1.141,1.198c1.719,1.909,3.205,3.945,4.458,6.088c1.384,2.37,3.03,4.641,4.95,6.766
				c3.031,3.347,6.506,6.054,10.225,8.155l8.912,9.951C139.441,192.014,136.722,191.172,134.061,189.988 M252.412,158.512
				c10.063-7.282,22.591-8.73,33.483-4.976c0.969,0.339,1.998,0.88,2.994,1.144c0.527,0.145-1.068,0.268-1.606,0.384
				c-2.522,0.542-5.03,0.801-7.515,0.812c-2.75,0.016-5.547,0.301-8.343,0.9c-4.419,0.943-8.505,2.594-12.198,4.761l-13.086,2.722
				C247.958,162.148,250.057,160.217,252.412,158.512 M147.453,163.854c-8.318-9.226-11.068-21.513-8.468-32.718
				c0.243-0.998,0.674-2.082,0.833-3.094c0.088-0.541,0.379,1.031,0.544,1.553c0.803,2.455,1.327,4.918,1.6,7.379
				c0.296,2.727,0.881,5.474,1.772,8.191c1.398,4.287,3.47,8.17,6.013,11.604l4.08,12.706
				C151.539,167.891,149.395,166.014,147.453,163.854 M227.772,142.495c6.225-10.743,17.08-17.149,28.561-18.141
				c1.026-0.087,2.187-0.007,3.207-0.171c0.539-0.078-0.864,0.673-1.315,1.002c-2.086,1.517-4.269,2.771-6.536,3.793
				c-2.502,1.129-4.941,2.523-7.256,4.21c-3.651,2.657-6.707,5.819-9.197,9.302l-10.846,7.803
				C225.192,147.621,226.317,145.01,227.772,142.495 M170.322,145.416c-3.826-11.804-1.336-24.144,5.604-33.324
				c0.626-0.814,1.461-1.627,2.025-2.487c0.295-0.456-0.078,1.092-0.134,1.644c-0.27,2.562-0.793,5.024-1.549,7.383
				c-0.839,2.615-1.424,5.355-1.724,8.203c-0.467,4.488-0.156,8.873,0.771,13.045l-1.45,13.264
				C172.419,150.768,171.223,148.182,170.322,145.416 M198.738,137.86c1.311-12.341,8.619-22.601,18.696-28.17
				c0.907-0.487,1.994-0.892,2.859-1.448c0.461-0.297-0.513,0.967-0.787,1.442c-1.289,2.231-2.771,4.276-4.423,6.118
				c-1.834,2.049-3.49,4.319-4.921,6.795c-2.252,3.908-3.754,8.041-4.614,12.229l-6.727,11.528
				C198.469,143.594,198.429,140.75,198.738,137.86 M229.864,73.327c-1.434,13.671-9.549,25.019-20.758,31.104
				c-10.072,5.561-17.369,15.812-18.664,28.152c-0.414,3.957-0.186,7.826,0.612,11.512c-3.506-6.743-5.138-14.561-4.289-22.697
				c0.301-2.842,0.891-5.592,1.73-8.202c0.766-2.358,1.29-4.827,1.559-7.388c1.544-14.721-5.878-28.313-17.851-35.309
				c0.522,1.207,0.994,2.457,1.414,3.732c4.229,13.08,1.413,26.755-6.365,36.884c-6.946,9.19-9.457,21.531-5.635,33.331
				c1.222,3.78,3.003,7.223,5.22,10.266c-5.935-4.729-10.596-11.205-13.112-18.979c-0.881-2.721-1.456-5.471-1.745-8.203
				c-0.26-2.463-0.783-4.928-1.571-7.378c-4.562-14.081-16.851-23.465-30.633-24.967c0.974,0.885,1.916,1.827,2.813,2.837
				c9.166,10.208,12.139,23.855,9.135,36.283c-2.621,11.228,0.088,23.524,8.364,32.74c2.646,2.955,5.671,5.373,8.933,7.246
				c-7.343-1.899-14.226-5.908-19.675-11.986c-1.909-2.127-3.547-4.399-4.923-6.777c-1.234-2.143-2.709-4.184-4.429-6.098
				c-9.872-11.004-24.906-14.553-38.102-10.303c1.244,0.41,2.486,0.896,3.713,1.441c12.513,5.589,20.763,16.836,23.057,29.41
				c2.154,11.326,9.617,21.451,20.913,26.494c3.62,1.617,7.359,2.594,11.099,2.978c-7.474,1.261-15.393,0.405-22.834-2.92
				c-2.606-1.165-5.025-2.577-7.241-4.185c-2.004-1.452-4.179-2.719-6.52-3.764c-13.481-6.019-28.661-3.128-38.997,6.143
				c1.309-0.129,2.641-0.197,3.982-0.197c13.699-0.006,25.796,6.904,32.99,17.452c6.562,9.467,17.479,15.67,29.846,15.665
				c3.962,0,7.779-0.636,11.352-1.816c-6.324,4.204-13.899,6.655-22.051,6.659c-2.849,0-5.635-0.3-8.319-0.87
				c-2.411-0.507-4.908-0.775-7.477-0.775c-14.76,0-27.454,8.845-33.146,21.522c1.145-0.653,2.336-1.258,3.558-1.803
				c12.517-5.594,26.371-4.228,37.221,2.475c9.83,5.973,22.327,7.181,33.623,2.134c3.619-1.627,6.851-3.759,9.638-6.292
				c-4.077,6.416-10.012,11.745-17.455,15.075c-2.604,1.161-5.266,2.021-7.944,2.602c-2.418,0.517-4.811,1.298-7.151,2.341
				c-13.486,6.026-21.503,19.286-21.561,33.19c0.782-1.067,1.622-2.099,2.523-3.103c9.172-10.223,22.378-14.613,35.01-12.926
				c11.404,1.439,23.304-2.559,31.581-11.782c2.651-2.956,4.738-6.219,6.255-9.674c-1.119,7.523-4.375,14.816-9.835,20.896
				c-1.9,2.125-3.992,3.998-6.204,5.615c-1.998,1.46-3.863,3.148-5.583,5.059c-9.881,11.01-11.833,26.387-6.246,39.111
				c0.281-1.295,0.633-2.575,1.041-3.858c4.242-13.081,14.527-22.487,26.749-26.103c11.005-3.334,20.266-11.844,24.088-23.645
				c1.227-3.781,1.802-7.613,1.792-11.378c2.025,7.327,2.003,15.312-0.518,23.082c-0.881,2.724-2.031,5.28-3.392,7.67
				c-1.234,2.147-2.258,4.446-3.051,6.903c-4.567,14.08-0.114,28.927,10.146,38.261c-0.264-1.285-0.472-2.61-0.61-3.946
				c-1.431-13.674,4.159-26.465,13.862-34.751c8.701-7.54,13.716-19.094,12.421-31.436c-0.414-3.946-1.437-7.686-2.979-11.135
				c4.822,5.874,8.043,13.174,8.892,21.312c0.297,2.843,0.286,5.649,0.008,8.386c-0.255,2.464-0.261,4.979,0.01,7.55
				c1.537,14.723,11.62,26.469,24.78,30.812c-0.767-1.071-1.486-2.192-2.16-3.364c-6.846-11.9-6.93-25.863-1.417-37.401
				c4.892-10.431,4.794-23.023-1.39-33.775c-1.979-3.438-4.434-6.433-7.235-8.943c6.79,3.382,12.684,8.746,16.759,15.83
				c1.424,2.466,2.554,5.046,3.404,7.648c0.771,2.362,1.784,4.667,3.07,6.894c7.369,12.823,21.349,19.431,35.134,18.034
				c-1.136-0.67-2.247-1.399-3.336-2.191c-11.083-8.073-16.815-20.798-16.458-33.58c0.242-11.529-4.956-22.994-14.962-30.286
				c-3.206-2.334-6.66-4.064-10.239-5.213c7.575,0.319,15.138,2.806,21.731,7.612c2.304,1.677,4.38,3.566,6.214,5.602
				c1.657,1.833,3.521,3.528,5.595,5.04c11.937,8.705,27.384,9.043,39.415,2.129c-1.305-0.141-2.62-0.354-3.931-0.631
				c-13.407-2.858-23.802-12.135-28.654-23.959c-4.453-10.629-13.854-18.978-25.942-21.554c-3.877-0.828-7.741-0.996-11.477-0.592
				c7.055-2.793,14.974-3.608,22.943-1.907c2.787,0.596,5.449,1.468,7.955,2.575c2.253,1.009,4.646,1.791,7.152,2.324
				c14.434,3.074,28.686-2.916,36.88-14.139c-1.258,0.399-2.544,0.743-3.86,1.026c-13.396,2.858-26.66-1.376-35.889-10.187
				c-8.375-7.898-20.342-11.685-32.441-9.102c-3.873,0.826-7.478,2.245-10.72,4.143c5.308-5.43,12.217-9.408,20.187-11.105
				c2.786-0.598,5.574-0.887,8.313-0.891c2.471-0.007,4.967-0.265,7.474-0.8c14.439-3.083,25.029-14.372,27.966-27.964
				c-0.984,0.881-2.02,1.712-3.107,2.507c-11.083,8.084-24.92,9.632-36.92,5.343c-10.855-3.795-23.331-2.367-33.331,4.929
				c-3.207,2.339-5.924,5.104-8.121,8.163c2.651-7.127,7.354-13.584,13.943-18.387c2.308-1.68,4.736-3.08,7.233-4.205
				c2.258-1.006,4.433-2.271,6.514-3.783c11.943-8.705,17.039-23.342,14.212-36.949c-0.544,1.199-1.149,2.388-1.821,3.551
				c-6.854,11.913-18.868,18.971-31.572,19.953c-11.45,0.966-22.27,7.361-28.458,18.105c-1.982,3.446-3.341,7.08-4.113,10.769
				c-0.465-7.592,1.218-15.404,5.289-22.483c1.429-2.479,3.081-4.746,4.915-6.796c1.646-1.841,3.127-3.881,4.412-6.106
				c7.38-12.829,6.105-28.276-2-39.559C230.077,70.653,230.004,71.985,229.864,73.327"/>
		</defs>
		<clipPath id="SVGID_21_">
			<use xlink:href="#SVGID_20_"  overflow="visible"/>
		</clipPath>
		
			<linearGradient id="SVGID_22_" gradientUnits="userSpaceOnUse" x1="-74.8101" y1="439.5166" x2="-73.8096" y2="439.5166" gradientTransform="matrix(0 -276.8828 -276.8828 0 121898.3828 -20367.3047)">
			<stop  offset="0" style="stop-color:#837B24"/>
			<stop  offset="0.0183" style="stop-color:#888023"/>
			<stop  offset="0.1502" style="stop-color:#ABA015"/>
			<stop  offset="0.283" style="stop-color:#C9BD00"/>
			<stop  offset="0.4156" style="stop-color:#E0D300"/>
			<stop  offset="0.5479" style="stop-color:#EEE100"/>
			<stop  offset="0.6797" style="stop-color:#F3E500"/>
			<stop  offset="0.7544" style="stop-color:#EFE200"/>
			<stop  offset="0.8281" style="stop-color:#E4D700"/>
			<stop  offset="0.9013" style="stop-color:#D2C700"/>
			<stop  offset="0.9739" style="stop-color:#B8B013"/>
			<stop  offset="1" style="stop-color:#ADA61C"/>
		</linearGradient>
		<rect x="65.083" y="69.332" clip-path="url(#SVGID_21_)" fill="url(#SVGID_22_)" width="276.896" height="276.885"/>
	</g>
	<g clip-path="url(#SVGID_2_)">
		<defs>
			<polygon id="SVGID_23_" points="75.872,163.401 67.114,163.365 74.178,168.603 71.356,177.285 78.788,171.871 85.966,177.247 
				83.283,168.653 90.544,163.354 81.547,163.377 78.762,154.704 			"/>
		</defs>
		<clipPath id="SVGID_24_">
			<use xlink:href="#SVGID_23_"  overflow="visible"/>
		</clipPath>
		
			<linearGradient id="SVGID_25_" gradientUnits="userSpaceOnUse" x1="-80.6709" y1="444.2031" x2="-79.6709" y2="444.2031" gradientTransform="matrix(-11.5624 -20.0266 -20.0266 11.5624 8048.6089 -6574.0771)">
			<stop  offset="0" style="stop-color:#837B24"/>
			<stop  offset="0.7734" style="stop-color:#F3E500"/>
			<stop  offset="1" style="stop-color:#B6B51B"/>
		</linearGradient>
		<polygon clip-path="url(#SVGID_24_)" fill="url(#SVGID_25_)" points="72.972,187.431 57.336,160.35 84.687,144.559 
			100.322,171.641 		"/>
	</g>
	<g clip-path="url(#SVGID_2_)">
		<defs>
			<polygon id="SVGID_26_" points="200.796,72.002 191.696,71.971 199.065,77.408 196.333,85.726 203.494,80.62 210.874,85.99 
				208.026,77.254 215.364,72.084 206.353,71.982 203.555,63.436 			"/>
		</defs>
		<clipPath id="SVGID_27_">
			<use xlink:href="#SVGID_26_"  overflow="visible"/>
		</clipPath>
		
			<linearGradient id="SVGID_28_" gradientUnits="userSpaceOnUse" x1="-65.8916" y1="438.5586" x2="-64.8916" y2="438.5586" gradientTransform="matrix(0 22.5547 22.5547 0 -9688.0205 1549.5829)">
			<stop  offset="0" style="stop-color:#837B24"/>
			<stop  offset="0.8945" style="stop-color:#F3E500"/>
			<stop  offset="1" style="stop-color:#CED726"/>
		</linearGradient>
		<rect x="191.696" y="63.436" clip-path="url(#SVGID_27_)" fill="url(#SVGID_28_)" width="23.668" height="22.555"/>
	</g>
	<g clip-path="url(#SVGID_2_)">
		<defs>
			<polygon id="SVGID_29_" points="277.802,310.322 268.815,310.337 276.106,315.616 273.27,324.264 280.717,318.929 
				287.78,324.104 285.145,315.714 292.529,310.35 283.331,310.358 280.69,301.788 			"/>
		</defs>
		<clipPath id="SVGID_30_">
			<use xlink:href="#SVGID_29_"  overflow="visible"/>
		</clipPath>
		
			<linearGradient id="SVGID_31_" gradientUnits="userSpaceOnUse" x1="-81.52" y1="436.1816" x2="-80.52" y2="436.1816" gradientTransform="matrix(11.587 -20.0693 -20.0693 -11.587 9972.3838 3742.6594)">
			<stop  offset="0" style="stop-color:#837B24"/>
			<stop  offset="0.7813" style="stop-color:#F3E500"/>
			<stop  offset="1" style="stop-color:#B8B81C"/>
		</linearGradient>
		<polygon clip-path="url(#SVGID_30_)" fill="url(#SVGID_31_)" points="259.083,318.645 274.744,291.52 302.262,307.407 
			286.601,334.532 		"/>
	</g>
	<g clip-path="url(#SVGID_2_)">
		<defs>
			<polygon id="SVGID_32_" points="123.63,310.302 114.531,310.271 121.899,315.708 119.167,324.026 126.329,318.918 
				133.708,324.29 130.859,315.554 138.198,310.387 129.187,310.28 126.391,301.737 			"/>
		</defs>
		<clipPath id="SVGID_33_">
			<use xlink:href="#SVGID_32_"  overflow="visible"/>
		</clipPath>
		
			<linearGradient id="SVGID_34_" gradientUnits="userSpaceOnUse" x1="-80.6528" y1="444.1992" x2="-79.6528" y2="444.1992" gradientTransform="matrix(-11.5949 -20.083 -20.083 11.5949 8118.75 -6445.5464)">
			<stop  offset="0" style="stop-color:#837B24"/>
			<stop  offset="0.7813" style="stop-color:#F3E500"/>
			<stop  offset="1" style="stop-color:#B8B81C"/>
		</linearGradient>
		<polygon clip-path="url(#SVGID_33_)" fill="url(#SVGID_34_)" points="120.448,334.538 104.766,307.376 132.282,291.489 
			147.964,318.652 		"/>
	</g>
	<g clip-path="url(#SVGID_2_)">
		<defs>
			<polygon id="SVGID_35_" points="325.495,163.477 316.53,163.344 323.745,168.723 320.989,177.279 328.262,171.973 
				335.61,177.342 332.838,168.613 339.944,163.497 331.146,163.412 328.329,154.731 			"/>
		</defs>
		<clipPath id="SVGID_36_">
			<use xlink:href="#SVGID_35_"  overflow="visible"/>
		</clipPath>
		
			<linearGradient id="SVGID_37_" gradientUnits="userSpaceOnUse" x1="-81.5127" y1="436.1943" x2="-80.5127" y2="436.1943" gradientTransform="matrix(11.5984 -20.0891 -20.0891 -11.5984 10029.7324 3599.2605)">
			<stop  offset="0" style="stop-color:#837B24"/>
			<stop  offset="0.7734" style="stop-color:#F3E500"/>
			<stop  offset="1" style="stop-color:#B6B41B"/>
		</linearGradient>
		<polygon clip-path="url(#SVGID_36_)" fill="url(#SVGID_37_)" points="306.739,171.689 322.384,144.593 349.735,160.385 
			334.091,187.48 		"/>
	</g>
	<g clip-path="url(#SVGID_2_)">
		<defs>
			<rect id="SVGID_38_" x="-94.138" y="-216.445" width="595.275" height="841.89"/>
		</defs>
		<clipPath id="SVGID_39_">
			<use xlink:href="#SVGID_38_"  overflow="visible"/>
		</clipPath>
		<g opacity="0.84" clip-path="url(#SVGID_39_)">
			<g>
				<defs>
					<rect id="SVGID_40_" x="145.663" y="183.883" width="115.732" height="41.784"/>
				</defs>
				<clipPath id="SVGID_41_">
					<use xlink:href="#SVGID_40_"  overflow="visible"/>
				</clipPath>
				<path clip-path="url(#SVGID_41_)" fill-rule="evenodd" clip-rule="evenodd" d="M175.224,225.667
					c3.807,0,10.488-2.314,10.488-10.337c0-6.494-3.719-8.282-7.587-8.282c-3.449,0-8.312,2.52-8.747,3.072
					c-1.29,1.637-1.937,4.537-1.937,6.268C167.441,222.478,170.487,225.667,175.224,225.667 M170.957,215.218
					c0-2.404,0.876-4.651,1.606-5.48c0.496-0.553,2.195-0.933,3.075-0.933c4.771,0,6.557,2.485,6.557,7.872
					c0,2.868-0.559,5.386-1.491,6.148c-0.673,0.552-2.196,0.792-3.284,0.792C173.971,223.617,170.957,221.245,170.957,215.218
					 M202.154,212.317c-0.025-2.197,0.648-4.104,1-4.799c-0.735,0-1.232-0.116-1.931-0.238c-0.704-0.111-1.648-0.232-2.844-0.232
					c-2.605,0-10.596,1.405-10.596,9.396c0,5.618,3.625,9.223,9.515,9.223c1.139,0,1.905-0.092,2.925-0.383
					c1.056-1.637,1.756-2.486,3.371-3.832l-1.056-0.032c-1.29,0.933-2.346,1.315-4.07,1.315c-3.776,0-7.168-1.636-7.168-8.021
					c0-1.343,0.585-4.476,2.134-5.382c0.553-0.321,1.755-0.528,2.78-0.528c0.933,0,2.316,0.119,3.455,0.528
					c1.429,0.523,1.869,1.492,1.869,2.984H202.154z M209.53,225.397c1.146-0.113,1.988-0.113,3.014-0.113c1,0,2.02,0,3.02,0.113
					c-1.439-0.29-1.439-2.807-1.439-9.073c0-3.392,0.207-6.638,0.264-7.55c3.781-0.058,5.267,0.149,5.267,2.227
					c0.616-1.145,0.911-2.787,1.206-3.924c-0.879,0.234-4.976,0.35-7.67,0.35c-3.396,0-5.416-0.024-6.648-0.115
					c-1.196-0.06-1.576-0.143-1.668-0.264c0,1.757-0.347,3.54-0.647,4.625c0.824-0.967,1.29-1.666,2.056-2.133
					c1.229-0.735,3.336-0.823,3.656-0.823c0.938,0.763,0.969,2.927,0.969,7.607c0,6.267,0,8.783-1.377,8.897V225.397z
					 M222.556,207.487c1.408,0.115,1.408,2.633,1.408,8.837c0,6.267,0,8.783-1.408,8.897c1.145,0.063,1.987,0.063,3.014,0.063
					c2.252,0,4.479,0,6.261,0.057c1.786,0.036,3.14,0.118,3.579,0.326c0.289-1.523,0.844-2.932,1.43-4.215
					c-1.166,1.346-2.693,2.691-7.375,2.691c-0.736,0-1.409,0-2.223-0.148c-0.063-2.14-0.063-5.496-0.063-7.639l1.875-0.032
					c3.574,0,4.041,1.089,4.041,2.175l0.435-2.143c0-0.995,0.124-1.99,0.233-2.984c-0.58,1.254-1.135,1.928-4.709,1.928
					c-0.615,0-1.258-0.031-1.875-0.114c0-2.9,0.146-5.646,0.203-6.608c0.734-0.092,1.439-0.157,2.17-0.157
					c3.568,0,5.475,0.853,5.475,2.788c0.496-2.284,0.785-3.398,0.963-4.16c-1.58,0.379-6.029,0.379-10.42,0.379l-1.467-0.024
					l-1.547-0.091V207.487z M238.097,225.397c0.73-0.082,1.436-0.113,2.17-0.113c0.813,0,1.637,0.031,2.455,0.113
					c-0.353-0.195-0.674-0.347-0.938-0.817c-0.29-0.497-0.472-5.387-0.472-7.728v-6.846l1.057,2.512
					c1.403,3.371,5.272,11.418,5.769,12.879c0.322-0.082,0.669-0.113,0.994-0.113c1.141-0.756,1.788-2.279,3.135-5.24
					c1.346-2.952,4.008-9.219,4.474-10.245l0.058,7.054c0,5.625,0,8.369-1.404,8.369c1,0.094,1.963,0.063,2.957,0.063
					c1.025,0,2.026,0.031,3.045,0.113c-1.377-0.176-1.377-3.479-1.377-9.041c0-6.558,0-8.604,1.377-8.869
					c-0.879-0.145-1.692-0.061-2.572-0.061c-0.762,0-1.522-0.084-2.284-0.115c-0.616,2.049-5.241,12.027-6.292,14.197
					c-1.58-3.254-5.272-10.891-6.267-14.197c-0.73,0.115-1.611,0.151-2.398,0.151c-0.876,0-1.755-0.036-2.604-0.151
					c0.674,0.409,1.17,0.645,1.17,3.276c0,2.755-0.673,13.407-1.347,14.168L238.097,225.397z M162.589,188.633
					c-0.089-0.515-0.12-1.305-0.12-1.623c0-0.905,0.12-1.868,0.378-2.75c-0.906,0.058-1.637-0.028-2.248-0.117
					c-0.994-0.176-1.818-0.26-2.636-0.26c-3.863,0-6.965,1.638-6.965,4.889c0,2.139,0.994,3.454,3.273,4.684
					c3.195,1.721,6.271,1.721,6.271,4.944c0,2.313-1.465,2.925-3.133,2.925c-3.34,0-5.738-2.279-5.8-4.531
					c-0.472,1.17-0.472,1.728-0.472,1.783c0,1.583-0.139,2.43-0.258,3.104c0.647,0.142,3.309,0.818,5.737,0.818
					c5.3,0,7.142-3.572,7.142-5.617c0-2.58-1.698-3.485-5.179-5.097c-1.993-0.905-4.365-1.756-4.365-4.157
					c0-1.84,1.083-2.572,2.9-2.572c3.454,0,4.92,2.191,4.92,3.629L162.589,188.633z M173.355,202.498
					c3.802,0,10.477-2.313,10.477-10.332c0-6.498-3.719-8.283-7.582-8.283c-3.454,0-8.317,2.52-8.752,3.07
					c-1.29,1.639-1.927,4.539-1.927,6.264C165.571,199.311,168.612,202.498,173.355,202.498 M169.077,192.049
					c0-2.402,0.881-4.655,1.612-5.475c0.496-0.553,2.195-0.936,3.075-0.936c4.769,0,6.552,2.484,6.552,7.873
					c0,2.869-0.554,5.385-1.487,6.146c-0.678,0.557-2.196,0.791-3.278,0.791C172.091,200.449,169.077,198.08,169.077,192.049
					 M191.993,184.143c-0.988,0.117-2.018,0.117-3.013,0.117c-1.021,0-1.875,0-3.014-0.117c1.378,0.296,1.378,2.811,1.378,9.021
					c0,6.262,0,8.777-1.378,8.894c1.139,0.063,1.993,0.063,3.014,0.063c1.931,0,3.894,0,5.474,0.057
					c1.549,0.027,2.755,0.117,3.102,0.32c0-1.117,0.383-3.395,0.881-4.974c-1.144,2.635-4.097,3.45-6.35,3.45
					c-0.352,0-0.969-0.086-1.351-0.143c0-0.59-0.171-5.125-0.171-7.668c0-6.211,0-8.726,1.428-8.847V184.143z M207.681,202.235
					c1.145-0.114,1.995-0.114,3.02-0.114c1.051,0,1.963,0.027,3.009,0.114c-1.429-0.178-1.429-2.784-1.429-7.231
					c0.586,0.058,1.315,0.117,1.905,0.117c3.543,0,8.28-1.519,8.28-6.529c0-3.774-2.635-4.709-5.587-4.709
					c-0.647,0-1.703,0.084-2.931,0.177c-1.202,0.116-2.574,0.2-3.808,0.2l-1.196-0.028l-1.264-0.089
					c1.379,0.296,1.379,2.811,1.379,9.021c0,6.262,0,8.777-1.379,8.894V202.235z M212.28,193.603c0-0.996,0-7.615,0.176-8.347
					c0.554-0.174,1.113-0.201,1.638-0.201c2.987,0,4.856,1.373,4.856,4.824c0,2.313-1.139,4.074-3.981,4.074
					C213.86,193.953,213.036,193.805,212.28,193.603 M224.426,184.317c1.401,0.121,1.401,2.636,1.401,8.847
					c0,6.262,0,8.777-1.401,8.894c1.138,0.063,1.987,0.063,3.007,0.063c2.259,0,4.486,0,6.268,0.057
					c1.787,0.027,3.133,0.117,3.573,0.32c0.29-1.523,0.849-2.929,1.429-4.219c-1.164,1.35-2.694,2.695-7.374,2.695
					c-0.729,0-1.402,0-2.222-0.143c-0.058-2.139-0.058-5.504-0.058-7.644l1.87-0.024c3.568,0,4.045,1.082,4.045,2.164l0.436-2.14
					c0-0.996,0.113-1.987,0.238-2.985c-0.592,1.258-1.15,1.932-4.719,1.932c-0.616,0-1.254-0.025-1.87-0.117
					c0-2.893,0.14-5.646,0.202-6.613c0.735-0.091,1.435-0.148,2.17-0.148c3.568,0,5.47,0.849,5.47,2.787
					c0.502-2.289,0.792-3.401,0.968-4.16c-1.58,0.377-6.033,0.377-10.426,0.377l-1.46-0.028l-1.547-0.089V184.317z M240.665,202.235
					c1.146-0.114,1.989-0.114,3.014-0.114c1.025,0,1.994,0.027,3.021,0.114c-1.441-0.178-1.441-3.103-1.441-8.022
					c1.964,0,2.845,1.287,4.159,3.312l3.076,4.711c0.7-0.114,1.492-0.114,2.223-0.114c0.85,0,1.699,0,2.518,0.114
					c-0.523-0.178-1.668-1.347-3.248-3.425c-1.729-2.253-3.454-4.857-3.807-5.355c2.46-0.707,4.651-2.429,4.651-5.123
					c0-3.076-2.021-4.449-5.909-4.449c-1.408,0-2.314,0.084-3.164,0.177c-0.813,0.116-1.549,0.2-2.626,0.2l-1.205-0.028
					l-1.261-0.089c1.377,0.296,1.377,2.811,1.377,9.021c0,6.262,0,8.777-1.377,8.894V202.235z M245.258,193.045
					c0-0.971,0-6.881,0.178-7.815c0.528-0.118,1.087-0.175,1.642-0.175c2.547,0,4.246,1.257,4.246,4.449
					c0,2.28-0.969,3.685-4.422,3.685C246.403,193.188,245.757,193.105,245.258,193.045 M146.28,225.397
					c0.792-0.082,1.58-0.113,2.397-0.113c0.824,0,1.647,0.031,2.46,0.113c-0.321-0.228-0.755-0.466-0.906-1.046
					c-0.617-2.377-0.704-11.243-0.704-12.003v-1.026c1.088,1.372,10.917,12.937,11.89,14.075c0.316-0.082,0.643-0.113,0.964-0.113
					c0.233,0,0.876,0.031,1.166,0.113v-1.637c0-6.296,0.44-14.045,1.029-15.391c0.203-0.469,0.436-0.768,0.964-0.883
					c-0.704-0.061-1.171-0.061-2.134-0.061c-0.906,0-1.849-0.024-2.729-0.115c0.559,0.322,0.798,0.707,1.031,1.229
					c0.673,1.989,0.673,7.815,0.673,9.28v3.631c-2.926-3.254-9.311-10.596-11.357-14.141c-0.907,0.091-1.818,0.115-2.724,0.115
					c-0.881,0-1.762-0.024-2.637-0.115c0.736,0.207,2.429,2.229,2.491,2.404c0.146,0.436,0.208,1.021,0.208,1.75
					c0,1.97-0.326,11.911-1.083,13.083c-0.301,0.466-0.59,0.621-0.999,0.673V225.397z"/>
			</g>
		</g>
	</g>
</g>
</svg>
