<?xml version="1.0" encoding="UTF-8" standalone="no"?>
<!-- Created with Inkscape (http://www.inkscape.org/) -->

<svg
   xmlns:dc="http://purl.org/dc/elements/1.1/"
   xmlns:cc="http://creativecommons.org/ns#"
   xmlns:rdf="http://www.w3.org/1999/02/22-rdf-syntax-ns#"
   xmlns:svg="http://www.w3.org/2000/svg"
   xmlns="http://www.w3.org/2000/svg"
   version="1.1"
   width="362.802"
   height="362.802"
   viewBox="0 0 362.80198 362.802"
   id="svg2"
   xml:space="preserve"><metadata
     id="metadata25"><rdf:RDF><cc:Work
         rdf:about=""><dc:format>image/svg+xml</dc:format><dc:type
           rdf:resource="http://purl.org/dc/dcmitype/StillImage" /><dc:title></dc:title></cc:Work></rdf:RDF></metadata><defs
     id="defs23" /><rect
     width="362.802"
     height="362.802"
     x="-9.4696597e-06"
     y="0"
     id="rect3"
     style="fill:#007be2" /><g
     transform="translate(-116.53101,-239.399)"
     id="g5"><rect
       width="80.513"
       height="11.507"
       x="319.892"
       y="487.349"
       id="rect7"
       style="fill:#ffffff" /><path
       d="m 237.228,446.506 h -11.165 v -4.227 c -3.008,3.17 -6.821,4.759 -11.447,4.759 -4.521,0 -8.137,-1.35 -10.836,-4.049 -3.112,-3.116 -4.666,-7.458 -4.666,-13.024 v -29.332 h 11.524 v 27.742 c 0,2.886 0.812,5.052 2.433,6.518 1.343,1.233 3.026,1.847 5.05,1.847 2.091,0 3.807,-0.613 5.139,-1.847 1.625,-1.466 2.431,-3.632 2.431,-6.518 v -27.742 h 11.538 v 45.873 z"
       id="path9"
       style="fill:#ffffff" /><path
       d="m 286.232,446.506 h -11.534 v -27.735 c 0,-2.87 -0.812,-5.045 -2.45,-6.5 -1.341,-1.232 -3.032,-1.862 -5.07,-1.862 -2.104,0 -3.827,0.63 -5.163,1.862 -1.651,1.454 -2.464,3.629 -2.464,6.5 v 27.735 h -11.434 v -45.873 h 11.179 v 4.233 c 2.999,-3.159 6.812,-4.757 11.447,-4.757 4.528,0 8.133,1.363 10.823,4.062 3.112,3.092 4.666,7.443 4.666,13.012 v 29.323 z"
       id="path11"
       style="fill:#ffffff" /><path
       d="m 308.842,392.889 h -11.529 v -9.314 h 11.529 v 9.314 z m 0,53.617 h -11.529 v -45.873 h 11.529 v 45.873 z"
       id="path13"
       style="fill:#ffffff" /><path
       d="m 358.266,423.528 c 0,4.696 -0.213,8.23 -0.621,10.565 -0.635,3.827 -1.998,6.748 -4.049,8.809 -2.744,2.761 -6.486,4.137 -11.179,4.137 -4.696,0 -8.506,-1.598 -11.444,-4.839 v 4.315 H 319.892 V 383.83 h 11.521 v 20.852 c 2.757,-3.026 6.433,-4.56 11.071,-4.56 4.666,0 8.387,1.376 11.116,4.129 2.061,2.055 3.41,4.979 4.045,8.805 0.408,2.348 0.621,5.846 0.621,10.472 m -11.53,0 c 0,-4.036 -0.328,-6.945 -0.963,-8.715 -1.159,-2.934 -3.396,-4.404 -6.699,-4.404 -3.303,0 -5.54,1.47 -6.694,4.404 -0.648,1.77 -0.968,4.679 -0.968,8.715 0,4.066 0.319,6.961 0.968,8.728 1.154,2.992 3.392,4.484 6.694,4.484 3.302,0 5.54,-1.492 6.699,-4.484 0.635,-1.767 0.963,-4.662 0.963,-8.728"
       id="path15"
       style="fill:#ffffff" /><polygon
       points="366.607,410.947 366.607,400.634 400.404,400.634 400.404,409.362 379.811,436.198 400.404,436.198 400.404,446.506 365.467,446.506 365.467,437.805 385.799,410.947 "
       id="polygon17"
       style="fill:#ffffff" /><rect
       width="80.513"
       height="11.5"
       x="319.892"
       y="337.827"
       id="rect19"
       style="fill:#ffffff" /></g></svg>